<svg xmlns="http://www.w3.org/2000/svg" width="900" height="402" viewBox="0 0 900 402" font-family="sans-serif">
<rect width="100%" height="100%" fill="white"/>
<text x="450.0" y="16" text-anchor="middle" font-size="12" font-weight="bold">BUY ticket_12 Stage A - macro (4h)</text>
<g transform="translate(0,20)">
<line x1="65.4" y1="310.8" x2="65.4" y2="318.2" stroke="#c0392b" stroke-width="1"/>
<rect x="62.2" y="313.1" width="6.5" height="1.1" fill="#c0392b" stroke="#c0392b"/>
<line x1="76.3" y1="311.6" x2="76.3" y2="318.6" stroke="#2a9d5c" stroke-width="1"/>
<rect x="73.0" y="312.7" width="6.5" height="1.5" fill="#2a9d5c" stroke="#2a9d5c"/>
<line x1="87.2" y1="305.9" x2="87.2" y2="317.5" stroke="#c0392b" stroke-width="1"/>
<rect x="83.9" y="312.6" width="6.5" height="2.8" fill="#c0392b" stroke="#c0392b"/>
<line x1="98.0" y1="277.4" x2="98.0" y2="315.5" stroke="#2a9d5c" stroke-width="1"/>
<rect x="94.8" y="284.5" width="6.5" height="30.9" fill="#2a9d5c" stroke="#2a9d5c"/>
<line x1="108.9" y1="272.6" x2="108.9" y2="305.3" stroke="#2a9d5c" stroke-width="1"/>
<rect x="105.7" y="280.7" width="6.5" height="4.0" fill="#2a9d5c" stroke="#2a9d5c"/>
<line x1="119.8" y1="277.3" x2="119.8" y2="293.2" stroke="#2a9d5c" stroke-width="1"/>
<rect x="116.5" y="279.2" width="6.5" height="1.5" fill="#2a9d5c" stroke="#2a9d5c"/>
<line x1="130.7" y1="272.8" x2="130.7" y2="285.5" stroke="#2a9d5c" stroke-width="1"/>
<rect x="127.4" y="275.0" width="6.5" height="4.0" fill="#2a9d5c" stroke="#2a9d5c"/>
<line x1="141.5" y1="257.7" x2="141.5" y2="276.7" stroke="#2a9d5c" stroke-width="1"/>
<rect x="138.3" y="267.5" width="6.5" height="7.5" fill="#2a9d5c" stroke="#2a9d5c"/>
<line x1="152.4" y1="260.4" x2="152.4" y2="272.6" stroke="#2a9d5c" stroke-width="1"/>
<rect x="149.1" y="263.8" width="6.5" height="3.6" fill="#2a9d5c" stroke="#2a9d5c"/>
<line x1="163.3" y1="252.4" x2="163.3" y2="279.5" stroke="#c0392b" stroke-width="1"/>
<rect x="160.0" y="263.8" width="6.5" height="5.8" fill="#c0392b" stroke="#c0392b"/>
<line x1="174.1" y1="261.2" x2="174.1" y2="277.3" stroke="#2a9d5c" stroke-width="1"/>
<rect x="170.9" y="264.8" width="6.5" height="4.9" fill="#2a9d5c" stroke="#2a9d5c"/>
<line x1="185.0" y1="258.7" x2="185.0" y2="266.3" stroke="#2a9d5c" stroke-width="1"/>
<rect x="181.7" y="260.2" width="6.5" height="4.5" fill="#2a9d5c" stroke="#2a9d5c"/>
<line x1="195.9" y1="254.4" x2="195.9" y2="268.1" stroke="#c0392b" stroke-width="1"/>
<rect x="192.6" y="261.2" width="6.5" height="6.4" fill="#c0392b" stroke="#c0392b"/>
<line x1="206.7" y1="256.9" x2="206.7" y2="269.7" stroke="#2a9d5c" stroke-width="1"/>
<rect x="203.5" y="258.2" width="6.5" height="9.4" fill="#2a9d5c" stroke="#2a9d5c"/>
<line x1="217.6" y1="242.3" x2="217.6" y2="261.6" stroke="#2a9d5c" stroke-width="1"/>
<rect x="214.3" y="246.4" width="6.5" height="11.8" fill="#2a9d5c" stroke="#2a9d5c"/>
<line x1="228.5" y1="219.2" x2="228.5" y2="266.6" stroke="#2a9d5c" stroke-width="1"/>
<rect x="225.2" y="242.6" width="6.5" height="3.7" fill="#2a9d5c" stroke="#2a9d5c"/>
<line x1="239.3" y1="203.5" x2="239.3" y2="247.5" stroke="#2a9d5c" stroke-width="1"/>
<rect x="236.1" y="237.0" width="6.5" height="5.6" fill="#2a9d5c" stroke="#2a9d5c"/>
<line x1="250.2" y1="229.5" x2="250.2" y2="246.7" stroke="#2a9d5c" stroke-width="1"/>
<rect x="247.0" y="230.2" width="6.5" height="6.8" fill="#2a9d5c" stroke="#2a9d5c"/>
<line x1="261.1" y1="225.6" x2="261.1" y2="232.4" stroke="#c0392b" stroke-width="1"/>
<rect x="257.8" y="228.9" width="6.5" height="3.5" fill="#c0392b" stroke="#c0392b"/>
<line x1="272.0" y1="213.4" x2="272.0" y2="233.0" stroke="#2a9d5c" stroke-width="1"/>
<rect x="268.7" y="232.1" width="6.5" height="0.8" fill="#2a9d5c" stroke="#2a9d5c"/>
<line x1="282.8" y1="225.2" x2="282.8" y2="232.9" stroke="#2a9d5c" stroke-width="1"/>
<rect x="279.6" y="228.8" width="6.5" height="3.4" fill="#2a9d5c" stroke="#2a9d5c"/>
<line x1="293.7" y1="222.9" x2="293.7" y2="234.4" stroke="#c0392b" stroke-width="1"/>
<rect x="290.4" y="228.8" width="6.5" height="2.8" fill="#c0392b" stroke="#c0392b"/>
<line x1="304.6" y1="219.7" x2="304.6" y2="236.2" stroke="#2a9d5c" stroke-width="1"/>
<rect x="301.3" y="224.7" width="6.5" height="6.8" fill="#2a9d5c" stroke="#2a9d5c"/>
<line x1="315.4" y1="218.7" x2="315.4" y2="232.4" stroke="#c0392b" stroke-width="1"/>
<rect x="312.2" y="224.7" width="6.5" height="1.9" fill="#c0392b" stroke="#c0392b"/>
<line x1="326.3" y1="220.2" x2="326.3" y2="226.8" stroke="#2a9d5c" stroke-width="1"/>
<rect x="323.0" y="225.7" width="6.5" height="0.8" fill="#2a9d5c" stroke="#2a9d5c"/>
<line x1="337.2" y1="220.6" x2="337.2" y2="230.0" stroke="#c0392b" stroke-width="1"/>
<rect x="333.9" y="225.7" width="6.5" height="3.6" fill="#c0392b" stroke="#c0392b"/>
<line x1="348.0" y1="229.1" x2="348.0" y2="238.2" stroke="#c0392b" stroke-width="1"/>
<rect x="344.8" y="229.4" width="6.5" height="6.0" fill="#c0392b" stroke="#c0392b"/>
<line x1="358.9" y1="229.3" x2="358.9" y2="236.3" stroke="#2a9d5c" stroke-width="1"/>
<rect x="355.7" y="233.6" width="6.5" height="1.8" fill="#2a9d5c" stroke="#2a9d5c"/>
<line x1="369.8" y1="224.5" x2="369.8" y2="271.9" stroke="#c0392b" stroke-width="1"/>
<rect x="366.5" y="233.6" width="6.5" height="23.2" fill="#c0392b" stroke="#c0392b"/>
<line x1="380.7" y1="249.5" x2="380.7" y2="271.4" stroke="#c0392b" stroke-width="1"/>
<rect x="377.4" y="256.8" width="6.5" height="13.7" fill="#c0392b" stroke="#c0392b"/>
<line x1="391.5" y1="257.7" x2="391.5" y2="275.2" stroke="#2a9d5c" stroke-width="1"/>
<rect x="388.3" y="262.0" width="6.5" height="8.5" fill="#2a9d5c" stroke="#2a9d5c"/>
<line x1="402.4" y1="257.6" x2="402.4" y2="266.8" stroke="#2a9d5c" stroke-width="1"/>
<rect x="399.1" y="259.4" width="6.5" height="2.7" fill="#2a9d5c" stroke="#2a9d5c"/>
<line x1="413.3" y1="257.6" x2="413.3" y2="264.5" stroke="#c0392b" stroke-width="1"/>
<rect x="410.0" y="259.5" width="6.5" height="1.4" fill="#c0392b" stroke="#c0392b"/>
<line x1="424.1" y1="254.1" x2="424.1" y2="264.0" stroke="#2a9d5c" stroke-width="1"/>
<rect x="420.9" y="254.6" width="6.5" height="6.3" fill="#2a9d5c" stroke="#2a9d5c"/>
<line x1="435.0" y1="241.4" x2="435.0" y2="257.7" stroke="#2a9d5c" stroke-width="1"/>
<rect x="431.7" y="245.7" width="6.5" height="9.0" fill="#2a9d5c" stroke="#2a9d5c"/>
<line x1="445.9" y1="228.1" x2="445.9" y2="246.8" stroke="#2a9d5c" stroke-width="1"/>
<rect x="442.6" y="236.2" width="6.5" height="9.5" fill="#2a9d5c" stroke="#2a9d5c"/>
<line x1="456.7" y1="235.1" x2="456.7" y2="241.2" stroke="#c0392b" stroke-width="1"/>
<rect x="453.5" y="236.3" width="6.5" height="0.8" fill="#c0392b" stroke="#c0392b"/>
<line x1="467.6" y1="232.7" x2="467.6" y2="239.8" stroke="#c0392b" stroke-width="1"/>
<rect x="464.3" y="236.5" width="6.5" height="3.1" fill="#c0392b" stroke="#c0392b"/>
<line x1="478.5" y1="237.5" x2="478.5" y2="248.1" stroke="#c0392b" stroke-width="1"/>
<rect x="475.2" y="239.6" width="6.5" height="6.4" fill="#c0392b" stroke="#c0392b"/>
<line x1="489.3" y1="240.7" x2="489.3" y2="248.0" stroke="#2a9d5c" stroke-width="1"/>
<rect x="486.1" y="243.1" width="6.5" height="2.9" fill="#2a9d5c" stroke="#2a9d5c"/>
<line x1="500.2" y1="242.6" x2="500.2" y2="263.8" stroke="#c0392b" stroke-width="1"/>
<rect x="497.0" y="243.0" width="6.5" height="13.8" fill="#c0392b" stroke="#c0392b"/>
<line x1="511.1" y1="251.9" x2="511.1" y2="271.7" stroke="#c0392b" stroke-width="1"/>
<rect x="507.8" y="256.9" width="6.5" height="0.9" fill="#c0392b" stroke="#c0392b"/>
<line x1="522.0" y1="253.8" x2="522.0" y2="259.0" stroke="#2a9d5c" stroke-width="1"/>
<rect x="518.7" y="257.7" width="6.5" height="0.8" fill="#2a9d5c" stroke="#2a9d5c"/>
<line x1="532.8" y1="250.5" x2="532.8" y2="259.1" stroke="#2a9d5c" stroke-width="1"/>
<rect x="529.6" y="256.3" width="6.5" height="1.4" fill="#2a9d5c" stroke="#2a9d5c"/>
<line x1="543.7" y1="243.9" x2="543.7" y2="257.2" stroke="#2a9d5c" stroke-width="1"/>
<rect x="540.4" y="245.7" width="6.5" height="10.7" fill="#2a9d5c" stroke="#2a9d5c"/>
<line x1="554.6" y1="239.6" x2="554.6" y2="251.5" stroke="#2a9d5c" stroke-width="1"/>
<rect x="551.3" y="245.1" width="6.5" height="0.8" fill="#2a9d5c" stroke="#2a9d5c"/>
<line x1="565.4" y1="245.0" x2="565.4" y2="265.7" stroke="#c0392b" stroke-width="1"/>
<rect x="562.2" y="245.1" width="6.5" height="8.1" fill="#c0392b" stroke="#c0392b"/>
<line x1="576.3" y1="253.2" x2="576.3" y2="267.8" stroke="#c0392b" stroke-width="1"/>
<rect x="573.0" y="253.2" width="6.5" height="7.9" fill="#c0392b" stroke="#c0392b"/>
<line x1="587.2" y1="260.9" x2="587.2" y2="267.5" stroke="#c0392b" stroke-width="1"/>
<rect x="583.9" y="261.1" width="6.5" height="5.3" fill="#c0392b" stroke="#c0392b"/>
<line x1="598.0" y1="266.4" x2="598.0" y2="274.0" stroke="#c0392b" stroke-width="1"/>
<rect x="594.8" y="267.8" width="6.5" height="0.8" fill="#c0392b" stroke="#c0392b"/>
<line x1="608.9" y1="264.0" x2="608.9" y2="281.6" stroke="#c0392b" stroke-width="1"/>
<rect x="605.7" y="268.3" width="6.5" height="11.2" fill="#c0392b" stroke="#c0392b"/>
<line x1="619.8" y1="277.6" x2="619.8" y2="282.4" stroke="#2a9d5c" stroke-width="1"/>
<rect x="616.5" y="279.2" width="6.5" height="0.8" fill="#2a9d5c" stroke="#2a9d5c"/>
<line x1="630.7" y1="262.4" x2="630.7" y2="280.5" stroke="#2a9d5c" stroke-width="1"/>
<rect x="627.4" y="262.9" width="6.5" height="16.4" fill="#2a9d5c" stroke="#2a9d5c"/>
<line x1="641.5" y1="254.3" x2="641.5" y2="267.3" stroke="#2a9d5c" stroke-width="1"/>
<rect x="638.3" y="262.5" width="6.5" height="0.8" fill="#2a9d5c" stroke="#2a9d5c"/>
<line x1="652.4" y1="257.9" x2="652.4" y2="268.8" stroke="#2a9d5c" stroke-width="1"/>
<rect x="649.1" y="261.0" width="6.5" height="1.5" fill="#2a9d5c" stroke="#2a9d5c"/>
<line x1="663.3" y1="256.1" x2="663.3" y2="261.1" stroke="#2a9d5c" stroke-width="1"/>
<rect x="660.0" y="258.2" width="6.5" height="2.7" fill="#2a9d5c" stroke="#2a9d5c"/>
<line x1="674.1" y1="255.5" x2="674.1" y2="262.3" stroke="#c0392b" stroke-width="1"/>
<rect x="670.9" y="258.3" width="6.5" height="0.8" fill="#c0392b" stroke="#c0392b"/>
<line x1="685.0" y1="256.1" x2="685.0" y2="269.6" stroke="#c0392b" stroke-width="1"/>
<rect x="681.7" y="258.7" width="6.5" height="6.5" fill="#c0392b" stroke="#c0392b"/>
<line x1="695.9" y1="264.4" x2="695.9" y2="280.8" stroke="#c0392b" stroke-width="1"/>
<rect x="692.6" y="265.2" width="6.5" height="4.2" fill="#c0392b" stroke="#c0392b"/>
<line x1="706.7" y1="262.2" x2="706.7" y2="278.7" stroke="#2a9d5c" stroke-width="1"/>
<rect x="703.5" y="268.2" width="6.5" height="1.4" fill="#2a9d5c" stroke="#2a9d5c"/>
<line x1="717.6" y1="263.7" x2="717.6" y2="275.0" stroke="#2a9d5c" stroke-width="1"/>
<rect x="714.3" y="265.3" width="6.5" height="2.9" fill="#2a9d5c" stroke="#2a9d5c"/>
<line x1="728.5" y1="260.7" x2="728.5" y2="266.1" stroke="#2a9d5c" stroke-width="1"/>
<rect x="725.2" y="262.2" width="6.5" height="3.1" fill="#2a9d5c" stroke="#2a9d5c"/>
<line x1="739.3" y1="260.0" x2="739.3" y2="267.8" stroke="#2a9d5c" stroke-width="1"/>
<rect x="736.1" y="261.7" width="6.5" height="0.8" fill="#2a9d5c" stroke="#2a9d5c"/>
<line x1="750.2" y1="259.8" x2="750.2" y2="265.8" stroke="#c0392b" stroke-width="1"/>
<rect x="747.0" y="261.7" width="6.5" height="3.2" fill="#c0392b" stroke="#c0392b"/>
<line x1="761.1" y1="260.9" x2="761.1" y2="272.3" stroke="#c0392b" stroke-width="1"/>
<rect x="757.8" y="264.8" width="6.5" height="4.3" fill="#c0392b" stroke="#c0392b"/>
<line x1="772.0" y1="252.2" x2="772.0" y2="276.8" stroke="#2a9d5c" stroke-width="1"/>
<rect x="768.7" y="264.7" width="6.5" height="4.4" fill="#2a9d5c" stroke="#2a9d5c"/>
<line x1="782.8" y1="221.9" x2="782.8" y2="268.7" stroke="#2a9d5c" stroke-width="1"/>
<rect x="779.6" y="224.9" width="6.5" height="39.8" fill="#2a9d5c" stroke="#2a9d5c"/>
<line x1="793.7" y1="159.1" x2="793.7" y2="230.4" stroke="#2a9d5c" stroke-width="1"/>
<rect x="790.4" y="194.4" width="6.5" height="30.2" fill="#2a9d5c" stroke="#2a9d5c"/>
<line x1="804.6" y1="175.7" x2="804.6" y2="207.8" stroke="#2a9d5c" stroke-width="1"/>
<rect x="801.3" y="190.2" width="6.5" height="4.1" fill="#2a9d5c" stroke="#2a9d5c"/>
<line x1="60" y1="188.5" x2="810" y2="188.5" stroke="#000000" stroke-width="1" stroke-dasharray="4,3"/>
<text x="814" y="191.5" font-size="10" fill="#000000">entry</text>
<line x1="60" y1="257.1" x2="810" y2="257.1" stroke="#c0392b" stroke-width="1" stroke-dasharray="4,3"/>
<text x="814" y="260.1" font-size="10" fill="#c0392b">SL</text>
<line x1="60" y1="51.4" x2="810" y2="51.4" stroke="#2a9d5c" stroke-width="1" stroke-dasharray="4,3"/>
<text x="814" y="54.4" font-size="10" fill="#2a9d5c">TP</text>
<line x1="804.6" y1="30" x2="804.6" y2="340" stroke="#000000" stroke-width="1.2" stroke-dasharray="2,2"/>
<text x="807.6" y="40" font-size="9" fill="#000000" transform="rotate(90 807.6 40)">entry</text>
<line x1="65.4" y1="340" x2="65.4" y2="344" stroke="#999"/>
<text x="65.4" y="356" font-size="8" text-anchor="middle" fill="#555">2024-03-06</text>
<line x1="185.0" y1="340" x2="185.0" y2="344" stroke="#999"/>
<text x="185.0" y="356" font-size="8" text-anchor="middle" fill="#555">2024-03-07</text>
<line x1="304.6" y1="340" x2="304.6" y2="344" stroke="#999"/>
<text x="304.6" y="356" font-size="8" text-anchor="middle" fill="#555">2024-03-11</text>
<line x1="424.1" y1="340" x2="424.1" y2="344" stroke="#999"/>
<text x="424.1" y="356" font-size="8" text-anchor="middle" fill="#555">2024-03-13</text>
<line x1="543.7" y1="340" x2="543.7" y2="344" stroke="#999"/>
<text x="543.7" y="356" font-size="8" text-anchor="middle" fill="#555">2024-03-15</text>
<line x1="663.3" y1="340" x2="663.3" y2="344" stroke="#999"/>
<text x="663.3" y="356" font-size="8" text-anchor="middle" fill="#555">2024-03-18</text>
<line x1="782.8" y1="340" x2="782.8" y2="344" stroke="#999"/>
<text x="782.8" y="356" font-size="8" text-anchor="middle" fill="#555">2024-03-20</text>
<line x1="60" y1="340.0" x2="810" y2="340.0" stroke="#eee" stroke-width="0.6"/>
<text x="54" y="343.0" font-size="8" text-anchor="end" fill="#555">2110.2</text>
<line x1="60" y1="262.5" x2="810" y2="262.5" stroke="#eee" stroke-width="0.6"/>
<text x="54" y="265.5" font-size="8" text-anchor="end" fill="#555">2158.4</text>
<line x1="60" y1="185.0" x2="810" y2="185.0" stroke="#eee" stroke-width="0.6"/>
<text x="54" y="188.0" font-size="8" text-anchor="end" fill="#555">2206.5</text>
<line x1="60" y1="107.5" x2="810" y2="107.5" stroke="#eee" stroke-width="0.6"/>
<text x="54" y="110.5" font-size="8" text-anchor="end" fill="#555">2254.7</text>
<line x1="60" y1="30.0" x2="810" y2="30.0" stroke="#eee" stroke-width="0.6"/>
<text x="54" y="33.0" font-size="8" text-anchor="end" fill="#555">2302.8</text>
<rect x="60" y="30" width="750" height="310" fill="none" stroke="#ccc"/>
</g>
</svg>
