<svg xmlns="http://www.w3.org/2000/svg" width="900" height="402" viewBox="0 0 900 402" font-family="sans-serif">
<rect width="100%" height="100%" fill="white"/>
<text x="450.0" y="16" text-anchor="middle" font-size="12" font-weight="bold">BUY ticket_10 Stage B - macro (4h)</text>
<g transform="translate(0,20)">
<line x1="63.6" y1="312.1" x2="63.6" y2="314.8" stroke="#2a9d5c" stroke-width="1"/>
<rect x="61.4" y="312.6" width="4.3" height="0.8" fill="#2a9d5c" stroke="#2a9d5c"/>
<line x1="70.7" y1="310.9" x2="70.7" y2="318.6" stroke="#2a9d5c" stroke-width="1"/>
<rect x="68.6" y="312.3" width="4.3" height="0.8" fill="#2a9d5c" stroke="#2a9d5c"/>
<line x1="77.9" y1="311.4" x2="77.9" y2="312.2" stroke="#2a9d5c" stroke-width="1"/>
<rect x="75.7" y="311.5" width="4.3" height="0.8" fill="#2a9d5c" stroke="#2a9d5c"/>
<line x1="85.0" y1="309.8" x2="85.0" y2="316.1" stroke="#c0392b" stroke-width="1"/>
<rect x="82.9" y="311.6" width="4.3" height="0.8" fill="#c0392b" stroke="#c0392b"/>
<line x1="92.1" y1="307.5" x2="92.1" y2="313.1" stroke="#2a9d5c" stroke-width="1"/>
<rect x="90.0" y="309.5" width="4.3" height="2.7" fill="#2a9d5c" stroke="#2a9d5c"/>
<line x1="99.3" y1="297.6" x2="99.3" y2="310.2" stroke="#2a9d5c" stroke-width="1"/>
<rect x="97.1" y="299.8" width="4.3" height="9.8" fill="#2a9d5c" stroke="#2a9d5c"/>
<line x1="106.4" y1="292.6" x2="106.4" y2="301.0" stroke="#2a9d5c" stroke-width="1"/>
<rect x="104.3" y="296.7" width="4.3" height="3.0" fill="#2a9d5c" stroke="#2a9d5c"/>
<line x1="113.6" y1="294.0" x2="113.6" y2="300.4" stroke="#c0392b" stroke-width="1"/>
<rect x="111.4" y="296.7" width="4.3" height="1.3" fill="#c0392b" stroke="#c0392b"/>
<line x1="120.7" y1="297.4" x2="120.7" y2="303.5" stroke="#c0392b" stroke-width="1"/>
<rect x="118.6" y="298.1" width="4.3" height="4.5" fill="#c0392b" stroke="#c0392b"/>
<line x1="127.9" y1="295.3" x2="127.9" y2="304.5" stroke="#2a9d5c" stroke-width="1"/>
<rect x="125.7" y="297.2" width="4.3" height="5.4" fill="#2a9d5c" stroke="#2a9d5c"/>
<line x1="135.0" y1="290.7" x2="135.0" y2="297.4" stroke="#2a9d5c" stroke-width="1"/>
<rect x="132.9" y="294.1" width="4.3" height="3.1" fill="#2a9d5c" stroke="#2a9d5c"/>
<line x1="142.1" y1="293.0" x2="142.1" y2="299.9" stroke="#c0392b" stroke-width="1"/>
<rect x="140.0" y="294.0" width="4.3" height="0.8" fill="#c0392b" stroke="#c0392b"/>
<line x1="149.3" y1="291.7" x2="149.3" y2="298.4" stroke="#c0392b" stroke-width="1"/>
<rect x="147.1" y="294.1" width="4.3" height="3.5" fill="#c0392b" stroke="#c0392b"/>
<line x1="156.4" y1="293.6" x2="156.4" y2="306.6" stroke="#c0392b" stroke-width="1"/>
<rect x="154.3" y="297.6" width="4.3" height="8.1" fill="#c0392b" stroke="#c0392b"/>
<line x1="163.6" y1="298.4" x2="163.6" y2="308.6" stroke="#2a9d5c" stroke-width="1"/>
<rect x="161.4" y="300.0" width="4.3" height="6.2" fill="#2a9d5c" stroke="#2a9d5c"/>
<line x1="170.7" y1="296.1" x2="170.7" y2="301.3" stroke="#2a9d5c" stroke-width="1"/>
<rect x="168.6" y="297.3" width="4.3" height="2.3" fill="#2a9d5c" stroke="#2a9d5c"/>
<line x1="177.9" y1="293.1" x2="177.9" y2="300.6" stroke="#2a9d5c" stroke-width="1"/>
<rect x="175.7" y="295.1" width="4.3" height="2.2" fill="#2a9d5c" stroke="#2a9d5c"/>
<line x1="185.0" y1="286.8" x2="185.0" y2="296.2" stroke="#2a9d5c" stroke-width="1"/>
<rect x="182.9" y="294.8" width="4.3" height="0.8" fill="#2a9d5c" stroke="#2a9d5c"/>
<line x1="192.1" y1="294.2" x2="192.1" y2="305.9" stroke="#c0392b" stroke-width="1"/>
<rect x="190.0" y="294.8" width="4.3" height="6.7" fill="#c0392b" stroke="#c0392b"/>
<line x1="199.3" y1="300.8" x2="199.3" y2="309.3" stroke="#c0392b" stroke-width="1"/>
<rect x="197.1" y="301.5" width="4.3" height="3.3" fill="#c0392b" stroke="#c0392b"/>
<line x1="206.4" y1="301.4" x2="206.4" y2="305.5" stroke="#2a9d5c" stroke-width="1"/>
<rect x="204.3" y="302.3" width="4.3" height="2.4" fill="#2a9d5c" stroke="#2a9d5c"/>
<line x1="213.6" y1="297.8" x2="213.6" y2="304.7" stroke="#2a9d5c" stroke-width="1"/>
<rect x="211.4" y="302.4" width="4.3" height="0.8" fill="#2a9d5c" stroke="#2a9d5c"/>
<line x1="220.7" y1="299.2" x2="220.7" y2="311.3" stroke="#c0392b" stroke-width="1"/>
<rect x="218.6" y="302.4" width="4.3" height="5.0" fill="#c0392b" stroke="#c0392b"/>
<line x1="227.9" y1="303.8" x2="227.9" y2="314.5" stroke="#2a9d5c" stroke-width="1"/>
<rect x="225.7" y="304.4" width="4.3" height="2.8" fill="#2a9d5c" stroke="#2a9d5c"/>
<line x1="235.0" y1="295.2" x2="235.0" y2="305.7" stroke="#2a9d5c" stroke-width="1"/>
<rect x="232.9" y="297.7" width="4.3" height="6.8" fill="#2a9d5c" stroke="#2a9d5c"/>
<line x1="242.1" y1="277.3" x2="242.1" y2="300.3" stroke="#2a9d5c" stroke-width="1"/>
<rect x="240.0" y="278.7" width="4.3" height="19.0" fill="#2a9d5c" stroke="#2a9d5c"/>
<line x1="249.3" y1="278.6" x2="249.3" y2="286.5" stroke="#c0392b" stroke-width="1"/>
<rect x="247.1" y="278.7" width="4.3" height="7.3" fill="#c0392b" stroke="#c0392b"/>
<line x1="256.4" y1="286.8" x2="256.4" y2="294.2" stroke="#c0392b" stroke-width="1"/>
<rect x="254.3" y="288.8" width="4.3" height="4.0" fill="#c0392b" stroke="#c0392b"/>
<line x1="263.6" y1="287.7" x2="263.6" y2="293.0" stroke="#2a9d5c" stroke-width="1"/>
<rect x="261.4" y="290.1" width="4.3" height="2.5" fill="#2a9d5c" stroke="#2a9d5c"/>
<line x1="270.7" y1="283.8" x2="270.7" y2="291.5" stroke="#c0392b" stroke-width="1"/>
<rect x="268.6" y="290.0" width="4.3" height="0.8" fill="#c0392b" stroke="#c0392b"/>
<line x1="277.9" y1="287.5" x2="277.9" y2="300.4" stroke="#c0392b" stroke-width="1"/>
<rect x="275.7" y="290.8" width="4.3" height="6.8" fill="#c0392b" stroke="#c0392b"/>
<line x1="285.0" y1="293.8" x2="285.0" y2="301.2" stroke="#2a9d5c" stroke-width="1"/>
<rect x="282.9" y="295.0" width="4.3" height="2.6" fill="#2a9d5c" stroke="#2a9d5c"/>
<line x1="292.1" y1="288.6" x2="292.1" y2="296.1" stroke="#2a9d5c" stroke-width="1"/>
<rect x="290.0" y="292.4" width="4.3" height="2.6" fill="#2a9d5c" stroke="#2a9d5c"/>
<line x1="299.3" y1="287.3" x2="299.3" y2="293.2" stroke="#2a9d5c" stroke-width="1"/>
<rect x="297.1" y="290.0" width="4.3" height="2.5" fill="#2a9d5c" stroke="#2a9d5c"/>
<line x1="306.4" y1="286.7" x2="306.4" y2="290.6" stroke="#2a9d5c" stroke-width="1"/>
<rect x="304.3" y="288.9" width="4.3" height="1.0" fill="#2a9d5c" stroke="#2a9d5c"/>
<line x1="313.6" y1="280.1" x2="313.6" y2="289.2" stroke="#2a9d5c" stroke-width="1"/>
<rect x="311.4" y="284.5" width="4.3" height="4.4" fill="#2a9d5c" stroke="#2a9d5c"/>
<line x1="320.7" y1="280.6" x2="320.7" y2="288.8" stroke="#c0392b" stroke-width="1"/>
<rect x="318.6" y="284.4" width="4.3" height="2.3" fill="#c0392b" stroke="#c0392b"/>
<line x1="327.9" y1="283.3" x2="327.9" y2="294.5" stroke="#c0392b" stroke-width="1"/>
<rect x="325.7" y="286.8" width="4.3" height="3.8" fill="#c0392b" stroke="#c0392b"/>
<line x1="335.0" y1="290.4" x2="335.0" y2="295.8" stroke="#c0392b" stroke-width="1"/>
<rect x="332.9" y="290.6" width="4.3" height="3.1" fill="#c0392b" stroke="#c0392b"/>
<line x1="342.1" y1="288.5" x2="342.1" y2="295.4" stroke="#2a9d5c" stroke-width="1"/>
<rect x="340.0" y="292.6" width="4.3" height="0.8" fill="#2a9d5c" stroke="#2a9d5c"/>
<line x1="349.3" y1="291.0" x2="349.3" y2="296.0" stroke="#c0392b" stroke-width="1"/>
<rect x="347.1" y="292.6" width="4.3" height="2.5" fill="#c0392b" stroke="#c0392b"/>
<line x1="356.4" y1="295.0" x2="356.4" y2="302.1" stroke="#c0392b" stroke-width="1"/>
<rect x="354.3" y="295.0" width="4.3" height="2.9" fill="#c0392b" stroke="#c0392b"/>
<line x1="363.6" y1="282.3" x2="363.6" y2="298.8" stroke="#2a9d5c" stroke-width="1"/>
<rect x="361.4" y="291.5" width="4.3" height="6.5" fill="#2a9d5c" stroke="#2a9d5c"/>
<line x1="370.7" y1="285.8" x2="370.7" y2="293.4" stroke="#c0392b" stroke-width="1"/>
<rect x="368.6" y="291.5" width="4.3" height="0.8" fill="#c0392b" stroke="#c0392b"/>
<line x1="377.9" y1="286.3" x2="377.9" y2="292.7" stroke="#2a9d5c" stroke-width="1"/>
<rect x="375.7" y="287.5" width="4.3" height="4.3" fill="#2a9d5c" stroke="#2a9d5c"/>
<line x1="385.0" y1="283.6" x2="385.0" y2="288.6" stroke="#2a9d5c" stroke-width="1"/>
<rect x="382.9" y="284.4" width="4.3" height="3.9" fill="#2a9d5c" stroke="#2a9d5c"/>
<line x1="392.1" y1="283.7" x2="392.1" y2="287.6" stroke="#2a9d5c" stroke-width="1"/>
<rect x="390.0" y="283.9" width="4.3" height="0.8" fill="#2a9d5c" stroke="#2a9d5c"/>
<line x1="399.3" y1="282.5" x2="399.3" y2="293.2" stroke="#c0392b" stroke-width="1"/>
<rect x="397.1" y="283.9" width="4.3" height="8.9" fill="#c0392b" stroke="#c0392b"/>
<line x1="406.4" y1="264.2" x2="406.4" y2="296.8" stroke="#2a9d5c" stroke-width="1"/>
<rect x="404.3" y="267.9" width="4.3" height="24.9" fill="#2a9d5c" stroke="#2a9d5c"/>
<line x1="413.6" y1="263.6" x2="413.6" y2="274.5" stroke="#c0392b" stroke-width="1"/>
<rect x="411.4" y="267.9" width="4.3" height="2.2" fill="#c0392b" stroke="#c0392b"/>
<line x1="420.7" y1="269.2" x2="420.7" y2="275.1" stroke="#c0392b" stroke-width="1"/>
<rect x="418.6" y="270.1" width="4.3" height="3.3" fill="#c0392b" stroke="#c0392b"/>
<line x1="427.9" y1="270.7" x2="427.9" y2="275.2" stroke="#2a9d5c" stroke-width="1"/>
<rect x="425.7" y="271.4" width="4.3" height="2.8" fill="#2a9d5c" stroke="#2a9d5c"/>
<line x1="435.0" y1="267.4" x2="435.0" y2="274.3" stroke="#2a9d5c" stroke-width="1"/>
<rect x="432.9" y="269.4" width="4.3" height="2.0" fill="#2a9d5c" stroke="#2a9d5c"/>
<line x1="442.1" y1="257.1" x2="442.1" y2="280.7" stroke="#2a9d5c" stroke-width="1"/>
<rect x="440.0" y="257.5" width="4.3" height="11.9" fill="#2a9d5c" stroke="#2a9d5c"/>
<line x1="449.3" y1="253.6" x2="449.3" y2="271.1" stroke="#c0392b" stroke-width="1"/>
<rect x="447.1" y="257.5" width="4.3" height="12.1" fill="#c0392b" stroke="#c0392b"/>
<line x1="456.4" y1="208.4" x2="456.4" y2="269.6" stroke="#2a9d5c" stroke-width="1"/>
<rect x="454.3" y="212.2" width="4.3" height="57.3" fill="#2a9d5c" stroke="#2a9d5c"/>
<line x1="463.6" y1="210.7" x2="463.6" y2="216.4" stroke="#c0392b" stroke-width="1"/>
<rect x="461.4" y="212.2" width="4.3" height="4.0" fill="#c0392b" stroke="#c0392b"/>
<line x1="470.7" y1="211.5" x2="470.7" y2="221.3" stroke="#c0392b" stroke-width="1"/>
<rect x="468.6" y="216.9" width="4.3" height="1.4" fill="#c0392b" stroke="#c0392b"/>
<line x1="477.9" y1="214.7" x2="477.9" y2="220.1" stroke="#2a9d5c" stroke-width="1"/>
<rect x="475.7" y="215.3" width="4.3" height="3.1" fill="#2a9d5c" stroke="#2a9d5c"/>
<line x1="485.0" y1="208.4" x2="485.0" y2="216.7" stroke="#2a9d5c" stroke-width="1"/>
<rect x="482.9" y="214.8" width="4.3" height="0.8" fill="#2a9d5c" stroke="#2a9d5c"/>
<line x1="492.1" y1="189.1" x2="492.1" y2="218.9" stroke="#2a9d5c" stroke-width="1"/>
<rect x="490.0" y="190.0" width="4.3" height="24.8" fill="#2a9d5c" stroke="#2a9d5c"/>
<line x1="499.3" y1="161.9" x2="499.3" y2="194.7" stroke="#2a9d5c" stroke-width="1"/>
<rect x="497.1" y="168.6" width="4.3" height="21.5" fill="#2a9d5c" stroke="#2a9d5c"/>
<line x1="506.4" y1="163.9" x2="506.4" y2="171.6" stroke="#c0392b" stroke-width="1"/>
<rect x="504.3" y="168.7" width="4.3" height="1.5" fill="#c0392b" stroke="#c0392b"/>
<line x1="513.6" y1="166.4" x2="513.6" y2="175.8" stroke="#c0392b" stroke-width="1"/>
<rect x="511.4" y="170.2" width="4.3" height="2.9" fill="#c0392b" stroke="#c0392b"/>
<line x1="520.7" y1="162.2" x2="520.7" y2="174.6" stroke="#2a9d5c" stroke-width="1"/>
<rect x="518.6" y="165.8" width="4.3" height="7.3" fill="#2a9d5c" stroke="#2a9d5c"/>
<line x1="527.9" y1="151.0" x2="527.9" y2="170.6" stroke="#2a9d5c" stroke-width="1"/>
<rect x="525.7" y="156.3" width="4.3" height="9.5" fill="#2a9d5c" stroke="#2a9d5c"/>
<line x1="535.0" y1="129.8" x2="535.0" y2="160.1" stroke="#2a9d5c" stroke-width="1"/>
<rect x="532.9" y="149.7" width="4.3" height="6.7" fill="#2a9d5c" stroke="#2a9d5c"/>
<line x1="542.1" y1="133.0" x2="542.1" y2="156.4" stroke="#2a9d5c" stroke-width="1"/>
<rect x="540.0" y="146.0" width="4.3" height="3.6" fill="#2a9d5c" stroke="#2a9d5c"/>
<line x1="549.3" y1="140.1" x2="549.3" y2="151.4" stroke="#c0392b" stroke-width="1"/>
<rect x="547.1" y="146.0" width="4.3" height="4.2" fill="#c0392b" stroke="#c0392b"/>
<line x1="556.4" y1="149.4" x2="556.4" y2="156.1" stroke="#c0392b" stroke-width="1"/>
<rect x="554.3" y="150.1" width="4.3" height="2.3" fill="#c0392b" stroke="#c0392b"/>
<line x1="563.6" y1="150.1" x2="563.6" y2="156.5" stroke="#2a9d5c" stroke-width="1"/>
<rect x="561.4" y="151.1" width="4.3" height="1.4" fill="#2a9d5c" stroke="#2a9d5c"/>
<line x1="570.7" y1="144.9" x2="570.7" y2="155.4" stroke="#c0392b" stroke-width="1"/>
<rect x="568.6" y="151.0" width="4.3" height="2.5" fill="#c0392b" stroke="#c0392b"/>
<line x1="577.9" y1="118.9" x2="577.9" y2="153.6" stroke="#2a9d5c" stroke-width="1"/>
<rect x="575.7" y="125.3" width="4.3" height="28.2" fill="#2a9d5c" stroke="#2a9d5c"/>
<line x1="585.0" y1="114.5" x2="585.0" y2="144.3" stroke="#2a9d5c" stroke-width="1"/>
<rect x="582.9" y="121.9" width="4.3" height="3.6" fill="#2a9d5c" stroke="#2a9d5c"/>
<line x1="592.1" y1="118.7" x2="592.1" y2="133.2" stroke="#2a9d5c" stroke-width="1"/>
<rect x="590.0" y="120.4" width="4.3" height="1.4" fill="#2a9d5c" stroke="#2a9d5c"/>
<line x1="599.3" y1="114.6" x2="599.3" y2="126.2" stroke="#2a9d5c" stroke-width="1"/>
<rect x="597.1" y="116.6" width="4.3" height="3.7" fill="#2a9d5c" stroke="#2a9d5c"/>
<line x1="606.4" y1="100.9" x2="606.4" y2="118.2" stroke="#2a9d5c" stroke-width="1"/>
<rect x="604.3" y="109.8" width="4.3" height="6.8" fill="#2a9d5c" stroke="#2a9d5c"/>
<line x1="613.6" y1="103.3" x2="613.6" y2="114.5" stroke="#2a9d5c" stroke-width="1"/>
<rect x="611.4" y="106.4" width="4.3" height="3.3" fill="#2a9d5c" stroke="#2a9d5c"/>
<line x1="620.7" y1="96.0" x2="620.7" y2="120.7" stroke="#c0392b" stroke-width="1"/>
<rect x="618.6" y="106.4" width="4.3" height="5.3" fill="#c0392b" stroke="#c0392b"/>
<line x1="627.9" y1="104.1" x2="627.9" y2="118.7" stroke="#2a9d5c" stroke-width="1"/>
<rect x="625.7" y="107.3" width="4.3" height="4.5" fill="#2a9d5c" stroke="#2a9d5c"/>
<line x1="635.0" y1="101.7" x2="635.0" y2="108.7" stroke="#2a9d5c" stroke-width="1"/>
<rect x="632.9" y="103.1" width="4.3" height="4.1" fill="#2a9d5c" stroke="#2a9d5c"/>
<line x1="642.1" y1="97.8" x2="642.1" y2="110.4" stroke="#c0392b" stroke-width="1"/>
<rect x="640.0" y="104.0" width="4.3" height="5.8" fill="#c0392b" stroke="#c0392b"/>
<line x1="649.3" y1="100.1" x2="649.3" y2="111.8" stroke="#2a9d5c" stroke-width="1"/>
<rect x="647.1" y="101.3" width="4.3" height="8.6" fill="#2a9d5c" stroke="#2a9d5c"/>
<line x1="656.4" y1="86.8" x2="656.4" y2="104.4" stroke="#2a9d5c" stroke-width="1"/>
<rect x="654.3" y="90.5" width="4.3" height="10.8" fill="#2a9d5c" stroke="#2a9d5c"/>
<line x1="663.6" y1="65.7" x2="663.6" y2="109.0" stroke="#2a9d5c" stroke-width="1"/>
<rect x="661.4" y="87.1" width="4.3" height="3.4" fill="#2a9d5c" stroke="#2a9d5c"/>
<line x1="670.7" y1="51.4" x2="670.7" y2="91.5" stroke="#2a9d5c" stroke-width="1"/>
<rect x="668.6" y="82.0" width="4.3" height="5.1" fill="#2a9d5c" stroke="#2a9d5c"/>
<line x1="677.9" y1="75.1" x2="677.9" y2="90.8" stroke="#2a9d5c" stroke-width="1"/>
<rect x="675.7" y="75.7" width="4.3" height="6.2" fill="#2a9d5c" stroke="#2a9d5c"/>
<line x1="685.0" y1="71.5" x2="685.0" y2="77.7" stroke="#c0392b" stroke-width="1"/>
<rect x="682.9" y="74.6" width="4.3" height="3.2" fill="#c0392b" stroke="#c0392b"/>
<line x1="692.1" y1="60.4" x2="692.1" y2="78.3" stroke="#2a9d5c" stroke-width="1"/>
<rect x="690.0" y="77.5" width="4.3" height="0.8" fill="#2a9d5c" stroke="#2a9d5c"/>
<line x1="699.3" y1="71.2" x2="699.3" y2="78.2" stroke="#2a9d5c" stroke-width="1"/>
<rect x="697.1" y="74.4" width="4.3" height="3.1" fill="#2a9d5c" stroke="#2a9d5c"/>
<line x1="706.4" y1="69.0" x2="706.4" y2="79.6" stroke="#c0392b" stroke-width="1"/>
<rect x="704.3" y="74.4" width="4.3" height="2.5" fill="#c0392b" stroke="#c0392b"/>
<line x1="713.6" y1="66.1" x2="713.6" y2="81.2" stroke="#2a9d5c" stroke-width="1"/>
<rect x="711.4" y="70.7" width="4.3" height="6.2" fill="#2a9d5c" stroke="#2a9d5c"/>
<line x1="720.7" y1="65.3" x2="720.7" y2="77.7" stroke="#c0392b" stroke-width="1"/>
<rect x="718.6" y="70.7" width="4.3" height="1.7" fill="#c0392b" stroke="#c0392b"/>
<line x1="727.9" y1="66.6" x2="727.9" y2="72.6" stroke="#2a9d5c" stroke-width="1"/>
<rect x="725.7" y="71.7" width="4.3" height="0.8" fill="#2a9d5c" stroke="#2a9d5c"/>
<line x1="735.0" y1="66.9" x2="735.0" y2="75.6" stroke="#c0392b" stroke-width="1"/>
<rect x="732.9" y="71.7" width="4.3" height="3.3" fill="#c0392b" stroke="#c0392b"/>
<line x1="742.1" y1="74.8" x2="742.1" y2="83.0" stroke="#c0392b" stroke-width="1"/>
<rect x="740.0" y="75.0" width="4.3" height="5.5" fill="#c0392b" stroke="#c0392b"/>
<line x1="749.3" y1="74.9" x2="749.3" y2="81.3" stroke="#2a9d5c" stroke-width="1"/>
<rect x="747.1" y="78.8" width="4.3" height="1.6" fill="#2a9d5c" stroke="#2a9d5c"/>
<line x1="756.4" y1="70.5" x2="756.4" y2="113.8" stroke="#c0392b" stroke-width="1"/>
<rect x="754.3" y="78.8" width="4.3" height="21.2" fill="#c0392b" stroke="#c0392b"/>
<line x1="763.6" y1="93.3" x2="763.6" y2="113.3" stroke="#c0392b" stroke-width="1"/>
<rect x="761.4" y="100.0" width="4.3" height="12.5" fill="#c0392b" stroke="#c0392b"/>
<line x1="770.7" y1="100.9" x2="770.7" y2="116.8" stroke="#2a9d5c" stroke-width="1"/>
<rect x="768.6" y="104.8" width="4.3" height="7.8" fill="#2a9d5c" stroke="#2a9d5c"/>
<line x1="777.9" y1="100.7" x2="777.9" y2="109.2" stroke="#2a9d5c" stroke-width="1"/>
<rect x="775.7" y="102.4" width="4.3" height="2.4" fill="#2a9d5c" stroke="#2a9d5c"/>
<line x1="785.0" y1="100.7" x2="785.0" y2="107.0" stroke="#c0392b" stroke-width="1"/>
<rect x="782.9" y="102.5" width="4.3" height="1.3" fill="#c0392b" stroke="#c0392b"/>
<line x1="792.1" y1="97.6" x2="792.1" y2="106.6" stroke="#2a9d5c" stroke-width="1"/>
<rect x="790.0" y="98.0" width="4.3" height="5.7" fill="#2a9d5c" stroke="#2a9d5c"/>
<line x1="799.3" y1="86.0" x2="799.3" y2="100.9" stroke="#2a9d5c" stroke-width="1"/>
<rect x="797.1" y="89.8" width="4.3" height="8.2" fill="#2a9d5c" stroke="#2a9d5c"/>
<line x1="806.4" y1="75.9" x2="806.4" y2="90.9" stroke="#2a9d5c" stroke-width="1"/>
<rect x="804.3" y="76.4" width="4.3" height="13.5" fill="#2a9d5c" stroke="#2a9d5c"/>
<line x1="60" y1="146.0" x2="810" y2="146.0" stroke="#000000" stroke-width="1" stroke-dasharray="4,3"/>
<text x="814" y="149.0" font-size="10" fill="#000000">entry</text>
<line x1="60" y1="190.0" x2="810" y2="190.0" stroke="#c0392b" stroke-width="1" stroke-dasharray="4,3"/>
<text x="814" y="193.0" font-size="10" fill="#c0392b">SL</text>
<line x1="60" y1="58.2" x2="810" y2="58.2" stroke="#2a9d5c" stroke-width="1" stroke-dasharray="4,3"/>
<text x="814" y="61.2" font-size="10" fill="#2a9d5c">TP</text>
<line x1="542.1" y1="30" x2="542.1" y2="340" stroke="#000000" stroke-width="1.2" stroke-dasharray="2,2"/>
<text x="545.1" y="40" font-size="9" fill="#000000" transform="rotate(90 545.1 40)">entry</text>
<line x1="677.9" y1="30" x2="677.9" y2="340" stroke="#555555" stroke-width="1.2" stroke-dasharray="2,2"/>
<text x="680.9" y="40" font-size="9" fill="#555555" transform="rotate(90 680.9 40)">exit</text>
<line x1="63.6" y1="340" x2="63.6" y2="344" stroke="#999"/>
<text x="63.6" y="356" font-size="8" text-anchor="middle" fill="#555">2024-02-19</text>
<line x1="185.0" y1="340" x2="185.0" y2="344" stroke="#999"/>
<text x="185.0" y="356" font-size="8" text-anchor="middle" fill="#555">2024-02-22</text>
<line x1="306.4" y1="340" x2="306.4" y2="344" stroke="#999"/>
<text x="306.4" y="356" font-size="8" text-anchor="middle" fill="#555">2024-02-27</text>
<line x1="427.9" y1="340" x2="427.9" y2="344" stroke="#999"/>
<text x="427.9" y="356" font-size="8" text-anchor="middle" fill="#555">2024-03-01</text>
<line x1="549.3" y1="340" x2="549.3" y2="344" stroke="#999"/>
<text x="549.3" y="356" font-size="8" text-anchor="middle" fill="#555">2024-03-05</text>
<line x1="670.7" y1="340" x2="670.7" y2="344" stroke="#999"/>
<text x="670.7" y="356" font-size="8" text-anchor="middle" fill="#555">2024-03-08</text>
<line x1="792.1" y1="340" x2="792.1" y2="344" stroke="#999"/>
<text x="792.1" y="356" font-size="8" text-anchor="middle" fill="#555">2024-03-13</text>
<line x1="60" y1="340.0" x2="810" y2="340.0" stroke="#eee" stroke-width="0.6"/>
<text x="54" y="343.0" font-size="8" text-anchor="end" fill="#555">1998.6</text>
<line x1="60" y1="262.5" x2="810" y2="262.5" stroke="#eee" stroke-width="0.6"/>
<text x="54" y="265.5" font-size="8" text-anchor="end" fill="#555">2051.3</text>
<line x1="60" y1="185.0" x2="810" y2="185.0" stroke="#eee" stroke-width="0.6"/>
<text x="54" y="188.0" font-size="8" text-anchor="end" fill="#555">2104.1</text>
<line x1="60" y1="107.5" x2="810" y2="107.5" stroke="#eee" stroke-width="0.6"/>
<text x="54" y="110.5" font-size="8" text-anchor="end" fill="#555">2156.8</text>
<line x1="60" y1="30.0" x2="810" y2="30.0" stroke="#eee" stroke-width="0.6"/>
<text x="54" y="33.0" font-size="8" text-anchor="end" fill="#555">2209.6</text>
<rect x="60" y="30" width="750" height="310" fill="none" stroke="#ccc"/>
</g>
</svg>
