<svg xmlns="http://www.w3.org/2000/svg" width="900" height="402" viewBox="0 0 900 402" font-family="sans-serif">
<rect width="100%" height="100%" fill="white"/>
<text x="450.0" y="16" text-anchor="middle" font-size="12" font-weight="bold">BUY ticket_74 Stage A - dettaglio (M15)</text>
<g transform="translate(0,20)">
<line x1="62.0" y1="297.9" x2="62.0" y2="312.1" stroke="#2a9d5c" stroke-width="1"/>
<rect x="60.8" y="301.4" width="2.4" height="6.2" fill="#2a9d5c" stroke="#2a9d5c"/>
<line x1="66.0" y1="295.9" x2="66.0" y2="306.6" stroke="#c0392b" stroke-width="1"/>
<rect x="64.8" y="301.7" width="2.4" height="1.5" fill="#c0392b" stroke="#c0392b"/>
<line x1="70.1" y1="295.4" x2="70.1" y2="303.8" stroke="#2a9d5c" stroke-width="1"/>
<rect x="68.9" y="299.3" width="2.4" height="3.8" fill="#2a9d5c" stroke="#2a9d5c"/>
<line x1="74.1" y1="290.9" x2="74.1" y2="299.4" stroke="#2a9d5c" stroke-width="1"/>
<rect x="72.9" y="291.2" width="2.4" height="8.1" fill="#2a9d5c" stroke="#2a9d5c"/>
<line x1="78.1" y1="289.0" x2="78.1" y2="294.2" stroke="#c0392b" stroke-width="1"/>
<rect x="76.9" y="291.1" width="2.4" height="0.8" fill="#c0392b" stroke="#c0392b"/>
<line x1="82.2" y1="289.3" x2="82.2" y2="296.2" stroke="#2a9d5c" stroke-width="1"/>
<rect x="81.0" y="289.3" width="2.4" height="2.1" fill="#2a9d5c" stroke="#2a9d5c"/>
<line x1="86.2" y1="284.4" x2="86.2" y2="289.7" stroke="#2a9d5c" stroke-width="1"/>
<rect x="85.0" y="285.3" width="2.4" height="4.1" fill="#2a9d5c" stroke="#2a9d5c"/>
<line x1="90.2" y1="284.5" x2="90.2" y2="292.1" stroke="#c0392b" stroke-width="1"/>
<rect x="89.0" y="285.3" width="2.4" height="4.8" fill="#c0392b" stroke="#c0392b"/>
<line x1="94.3" y1="280.4" x2="94.3" y2="297.1" stroke="#2a9d5c" stroke-width="1"/>
<rect x="93.1" y="281.2" width="2.4" height="8.8" fill="#2a9d5c" stroke="#2a9d5c"/>
<line x1="98.3" y1="271.3" x2="98.3" y2="281.7" stroke="#2a9d5c" stroke-width="1"/>
<rect x="97.1" y="271.9" width="2.4" height="9.3" fill="#2a9d5c" stroke="#2a9d5c"/>
<line x1="102.3" y1="265.8" x2="102.3" y2="273.6" stroke="#2a9d5c" stroke-width="1"/>
<rect x="101.1" y="267.1" width="2.4" height="4.9" fill="#2a9d5c" stroke="#2a9d5c"/>
<line x1="106.4" y1="266.2" x2="106.4" y2="275.6" stroke="#c0392b" stroke-width="1"/>
<rect x="105.2" y="267.1" width="2.4" height="6.8" fill="#c0392b" stroke="#c0392b"/>
<line x1="110.4" y1="269.5" x2="110.4" y2="276.1" stroke="#2a9d5c" stroke-width="1"/>
<rect x="109.2" y="271.7" width="2.4" height="2.2" fill="#2a9d5c" stroke="#2a9d5c"/>
<line x1="114.4" y1="263.9" x2="114.4" y2="273.0" stroke="#2a9d5c" stroke-width="1"/>
<rect x="113.2" y="264.5" width="2.4" height="7.3" fill="#2a9d5c" stroke="#2a9d5c"/>
<line x1="118.5" y1="261.7" x2="118.5" y2="269.3" stroke="#2a9d5c" stroke-width="1"/>
<rect x="117.3" y="264.3" width="2.4" height="0.8" fill="#2a9d5c" stroke="#2a9d5c"/>
<line x1="122.5" y1="262.7" x2="122.5" y2="268.6" stroke="#c0392b" stroke-width="1"/>
<rect x="121.3" y="264.4" width="2.4" height="4.0" fill="#c0392b" stroke="#c0392b"/>
<line x1="126.5" y1="265.9" x2="126.5" y2="273.4" stroke="#2a9d5c" stroke-width="1"/>
<rect x="125.3" y="266.2" width="2.4" height="2.2" fill="#2a9d5c" stroke="#2a9d5c"/>
<line x1="130.6" y1="264.5" x2="130.6" y2="271.8" stroke="#c0392b" stroke-width="1"/>
<rect x="129.4" y="266.2" width="2.4" height="3.1" fill="#c0392b" stroke="#c0392b"/>
<line x1="134.6" y1="266.9" x2="134.6" y2="271.1" stroke="#c0392b" stroke-width="1"/>
<rect x="133.4" y="269.3" width="2.4" height="0.8" fill="#c0392b" stroke="#c0392b"/>
<line x1="138.6" y1="269.3" x2="138.6" y2="274.4" stroke="#c0392b" stroke-width="1"/>
<rect x="137.4" y="269.9" width="2.4" height="0.8" fill="#c0392b" stroke="#c0392b"/>
<line x1="142.7" y1="269.9" x2="142.7" y2="273.2" stroke="#c0392b" stroke-width="1"/>
<rect x="141.5" y="270.8" width="2.4" height="0.8" fill="#c0392b" stroke="#c0392b"/>
<line x1="146.7" y1="270.8" x2="146.7" y2="273.7" stroke="#c0392b" stroke-width="1"/>
<rect x="145.5" y="271.1" width="2.4" height="2.0" fill="#c0392b" stroke="#c0392b"/>
<line x1="150.7" y1="272.7" x2="150.7" y2="277.8" stroke="#c0392b" stroke-width="1"/>
<rect x="149.5" y="273.2" width="2.4" height="2.9" fill="#c0392b" stroke="#c0392b"/>
<line x1="154.8" y1="273.2" x2="154.8" y2="280.9" stroke="#2a9d5c" stroke-width="1"/>
<rect x="153.5" y="274.2" width="2.4" height="1.8" fill="#2a9d5c" stroke="#2a9d5c"/>
<line x1="158.8" y1="272.8" x2="158.8" y2="282.7" stroke="#c0392b" stroke-width="1"/>
<rect x="157.6" y="274.2" width="2.4" height="5.8" fill="#c0392b" stroke="#c0392b"/>
<line x1="162.8" y1="276.1" x2="162.8" y2="284.2" stroke="#2a9d5c" stroke-width="1"/>
<rect x="161.6" y="276.9" width="2.4" height="3.1" fill="#2a9d5c" stroke="#2a9d5c"/>
<line x1="166.9" y1="275.4" x2="166.9" y2="283.8" stroke="#c0392b" stroke-width="1"/>
<rect x="165.6" y="276.9" width="2.4" height="3.1" fill="#c0392b" stroke="#c0392b"/>
<line x1="170.9" y1="270.7" x2="170.9" y2="280.7" stroke="#2a9d5c" stroke-width="1"/>
<rect x="169.7" y="271.9" width="2.4" height="8.2" fill="#2a9d5c" stroke="#2a9d5c"/>
<line x1="174.9" y1="267.7" x2="174.9" y2="275.9" stroke="#c0392b" stroke-width="1"/>
<rect x="173.7" y="272.0" width="2.4" height="2.8" fill="#c0392b" stroke="#c0392b"/>
<line x1="179.0" y1="270.4" x2="179.0" y2="277.0" stroke="#2a9d5c" stroke-width="1"/>
<rect x="177.7" y="271.5" width="2.4" height="3.2" fill="#2a9d5c" stroke="#2a9d5c"/>
<line x1="183.0" y1="262.0" x2="183.0" y2="271.8" stroke="#2a9d5c" stroke-width="1"/>
<rect x="181.8" y="262.4" width="2.4" height="9.1" fill="#2a9d5c" stroke="#2a9d5c"/>
<line x1="187.0" y1="251.6" x2="187.0" y2="271.1" stroke="#c0392b" stroke-width="1"/>
<rect x="185.8" y="262.4" width="2.4" height="7.8" fill="#c0392b" stroke="#c0392b"/>
<line x1="191.0" y1="262.1" x2="191.0" y2="272.2" stroke="#2a9d5c" stroke-width="1"/>
<rect x="189.8" y="262.8" width="2.4" height="7.5" fill="#2a9d5c" stroke="#2a9d5c"/>
<line x1="195.1" y1="260.2" x2="195.1" y2="263.5" stroke="#2a9d5c" stroke-width="1"/>
<rect x="193.9" y="260.4" width="2.4" height="2.4" fill="#2a9d5c" stroke="#2a9d5c"/>
<line x1="199.1" y1="260.2" x2="199.1" y2="265.6" stroke="#c0392b" stroke-width="1"/>
<rect x="197.9" y="260.4" width="2.4" height="3.7" fill="#c0392b" stroke="#c0392b"/>
<line x1="203.1" y1="261.0" x2="203.1" y2="264.3" stroke="#2a9d5c" stroke-width="1"/>
<rect x="201.9" y="263.8" width="2.4" height="0.8" fill="#2a9d5c" stroke="#2a9d5c"/>
<line x1="207.2" y1="259.7" x2="207.2" y2="264.9" stroke="#2a9d5c" stroke-width="1"/>
<rect x="206.0" y="260.0" width="2.4" height="4.1" fill="#2a9d5c" stroke="#2a9d5c"/>
<line x1="211.2" y1="259.2" x2="211.2" y2="260.6" stroke="#2a9d5c" stroke-width="1"/>
<rect x="210.0" y="259.8" width="2.4" height="0.8" fill="#2a9d5c" stroke="#2a9d5c"/>
<line x1="215.2" y1="258.8" x2="215.2" y2="263.3" stroke="#c0392b" stroke-width="1"/>
<rect x="214.0" y="259.7" width="2.4" height="1.8" fill="#c0392b" stroke="#c0392b"/>
<line x1="219.3" y1="261.2" x2="219.3" y2="268.9" stroke="#c0392b" stroke-width="1"/>
<rect x="218.1" y="261.5" width="2.4" height="5.4" fill="#c0392b" stroke="#c0392b"/>
<line x1="223.3" y1="261.8" x2="223.3" y2="267.5" stroke="#2a9d5c" stroke-width="1"/>
<rect x="222.1" y="262.7" width="2.4" height="4.4" fill="#2a9d5c" stroke="#2a9d5c"/>
<line x1="227.3" y1="259.5" x2="227.3" y2="264.4" stroke="#2a9d5c" stroke-width="1"/>
<rect x="226.1" y="259.7" width="2.4" height="3.0" fill="#2a9d5c" stroke="#2a9d5c"/>
<line x1="231.4" y1="258.7" x2="231.4" y2="264.8" stroke="#c0392b" stroke-width="1"/>
<rect x="230.2" y="259.7" width="2.4" height="2.9" fill="#c0392b" stroke="#c0392b"/>
<line x1="235.4" y1="261.6" x2="235.4" y2="271.4" stroke="#c0392b" stroke-width="1"/>
<rect x="234.2" y="262.5" width="2.4" height="4.1" fill="#c0392b" stroke="#c0392b"/>
<line x1="239.4" y1="263.0" x2="239.4" y2="269.7" stroke="#2a9d5c" stroke-width="1"/>
<rect x="238.2" y="263.7" width="2.4" height="2.6" fill="#2a9d5c" stroke="#2a9d5c"/>
<line x1="243.5" y1="262.7" x2="243.5" y2="265.4" stroke="#c0392b" stroke-width="1"/>
<rect x="242.3" y="263.9" width="2.4" height="0.9" fill="#c0392b" stroke="#c0392b"/>
<line x1="247.5" y1="260.6" x2="247.5" y2="265.6" stroke="#2a9d5c" stroke-width="1"/>
<rect x="246.3" y="261.8" width="2.4" height="3.0" fill="#2a9d5c" stroke="#2a9d5c"/>
<line x1="251.5" y1="261.0" x2="251.5" y2="263.2" stroke="#c0392b" stroke-width="1"/>
<rect x="250.3" y="261.8" width="2.4" height="0.8" fill="#c0392b" stroke="#c0392b"/>
<line x1="255.6" y1="261.8" x2="255.6" y2="264.8" stroke="#c0392b" stroke-width="1"/>
<rect x="254.4" y="262.4" width="2.4" height="2.1" fill="#c0392b" stroke="#c0392b"/>
<line x1="259.6" y1="264.2" x2="259.6" y2="269.8" stroke="#c0392b" stroke-width="1"/>
<rect x="258.4" y="264.5" width="2.4" height="0.8" fill="#c0392b" stroke="#c0392b"/>
<line x1="263.6" y1="262.0" x2="263.6" y2="266.8" stroke="#2a9d5c" stroke-width="1"/>
<rect x="262.4" y="263.4" width="2.4" height="1.5" fill="#2a9d5c" stroke="#2a9d5c"/>
<line x1="267.7" y1="262.0" x2="267.7" y2="264.9" stroke="#2a9d5c" stroke-width="1"/>
<rect x="266.5" y="262.6" width="2.4" height="0.8" fill="#2a9d5c" stroke="#2a9d5c"/>
<line x1="271.7" y1="261.3" x2="271.7" y2="264.9" stroke="#c0392b" stroke-width="1"/>
<rect x="270.5" y="262.6" width="2.4" height="0.8" fill="#c0392b" stroke="#c0392b"/>
<line x1="275.7" y1="259.5" x2="275.7" y2="265.5" stroke="#c0392b" stroke-width="1"/>
<rect x="274.5" y="263.2" width="2.4" height="0.8" fill="#c0392b" stroke="#c0392b"/>
<line x1="279.8" y1="263.3" x2="279.8" y2="269.2" stroke="#c0392b" stroke-width="1"/>
<rect x="278.5" y="263.3" width="2.4" height="3.7" fill="#c0392b" stroke="#c0392b"/>
<line x1="283.8" y1="265.7" x2="283.8" y2="270.4" stroke="#c0392b" stroke-width="1"/>
<rect x="282.6" y="267.0" width="2.4" height="2.5" fill="#c0392b" stroke="#c0392b"/>
<line x1="287.8" y1="267.6" x2="287.8" y2="276.6" stroke="#2a9d5c" stroke-width="1"/>
<rect x="286.6" y="268.8" width="2.4" height="0.8" fill="#2a9d5c" stroke="#2a9d5c"/>
<line x1="291.9" y1="267.1" x2="291.9" y2="276.0" stroke="#c0392b" stroke-width="1"/>
<rect x="290.6" y="268.8" width="2.4" height="4.4" fill="#c0392b" stroke="#c0392b"/>
<line x1="295.9" y1="272.7" x2="295.9" y2="282.9" stroke="#c0392b" stroke-width="1"/>
<rect x="294.7" y="273.2" width="2.4" height="0.8" fill="#c0392b" stroke="#c0392b"/>
<line x1="299.9" y1="271.0" x2="299.9" y2="276.0" stroke="#c0392b" stroke-width="1"/>
<rect x="298.7" y="273.8" width="2.4" height="1.3" fill="#c0392b" stroke="#c0392b"/>
<line x1="304.0" y1="272.5" x2="304.0" y2="280.8" stroke="#2a9d5c" stroke-width="1"/>
<rect x="302.7" y="273.6" width="2.4" height="1.5" fill="#2a9d5c" stroke="#2a9d5c"/>
<line x1="308.0" y1="267.3" x2="308.0" y2="277.8" stroke="#2a9d5c" stroke-width="1"/>
<rect x="306.8" y="269.8" width="2.4" height="3.8" fill="#2a9d5c" stroke="#2a9d5c"/>
<line x1="312.0" y1="262.9" x2="312.0" y2="271.8" stroke="#2a9d5c" stroke-width="1"/>
<rect x="310.8" y="267.9" width="2.4" height="1.9" fill="#2a9d5c" stroke="#2a9d5c"/>
<line x1="316.0" y1="259.6" x2="316.0" y2="268.5" stroke="#2a9d5c" stroke-width="1"/>
<rect x="314.8" y="260.0" width="2.4" height="7.9" fill="#2a9d5c" stroke="#2a9d5c"/>
<line x1="320.1" y1="259.3" x2="320.1" y2="265.9" stroke="#c0392b" stroke-width="1"/>
<rect x="318.9" y="259.9" width="2.4" height="0.8" fill="#c0392b" stroke="#c0392b"/>
<line x1="324.1" y1="259.6" x2="324.1" y2="266.5" stroke="#c0392b" stroke-width="1"/>
<rect x="322.9" y="260.3" width="2.4" height="2.9" fill="#c0392b" stroke="#c0392b"/>
<line x1="328.1" y1="262.0" x2="328.1" y2="272.1" stroke="#c0392b" stroke-width="1"/>
<rect x="326.9" y="263.2" width="2.4" height="6.5" fill="#c0392b" stroke="#c0392b"/>
<line x1="332.2" y1="260.5" x2="332.2" y2="270.1" stroke="#2a9d5c" stroke-width="1"/>
<rect x="331.0" y="262.9" width="2.4" height="6.9" fill="#2a9d5c" stroke="#2a9d5c"/>
<line x1="336.2" y1="255.1" x2="336.2" y2="263.6" stroke="#2a9d5c" stroke-width="1"/>
<rect x="335.0" y="256.9" width="2.4" height="5.9" fill="#2a9d5c" stroke="#2a9d5c"/>
<line x1="340.2" y1="255.6" x2="340.2" y2="273.9" stroke="#c0392b" stroke-width="1"/>
<rect x="339.0" y="257.0" width="2.4" height="14.2" fill="#c0392b" stroke="#c0392b"/>
<line x1="344.3" y1="267.0" x2="344.3" y2="276.9" stroke="#2a9d5c" stroke-width="1"/>
<rect x="343.1" y="270.4" width="2.4" height="0.8" fill="#2a9d5c" stroke="#2a9d5c"/>
<line x1="348.3" y1="261.2" x2="348.3" y2="270.7" stroke="#2a9d5c" stroke-width="1"/>
<rect x="347.1" y="263.7" width="2.4" height="6.7" fill="#2a9d5c" stroke="#2a9d5c"/>
<line x1="352.3" y1="259.3" x2="352.3" y2="265.9" stroke="#2a9d5c" stroke-width="1"/>
<rect x="351.1" y="261.0" width="2.4" height="2.6" fill="#2a9d5c" stroke="#2a9d5c"/>
<line x1="356.4" y1="260.4" x2="356.4" y2="268.5" stroke="#c0392b" stroke-width="1"/>
<rect x="355.2" y="261.0" width="2.4" height="3.3" fill="#c0392b" stroke="#c0392b"/>
<line x1="360.4" y1="256.6" x2="360.4" y2="267.7" stroke="#2a9d5c" stroke-width="1"/>
<rect x="359.2" y="256.6" width="2.4" height="7.6" fill="#2a9d5c" stroke="#2a9d5c"/>
<line x1="364.4" y1="255.2" x2="364.4" y2="259.4" stroke="#c0392b" stroke-width="1"/>
<rect x="363.2" y="256.6" width="2.4" height="0.8" fill="#c0392b" stroke="#c0392b"/>
<line x1="368.5" y1="256.1" x2="368.5" y2="270.9" stroke="#c0392b" stroke-width="1"/>
<rect x="367.3" y="257.3" width="2.4" height="12.5" fill="#c0392b" stroke="#c0392b"/>
<line x1="372.5" y1="263.1" x2="372.5" y2="270.8" stroke="#2a9d5c" stroke-width="1"/>
<rect x="371.3" y="266.1" width="2.4" height="3.6" fill="#2a9d5c" stroke="#2a9d5c"/>
<line x1="376.5" y1="266.0" x2="376.5" y2="281.0" stroke="#c0392b" stroke-width="1"/>
<rect x="375.3" y="266.1" width="2.4" height="11.4" fill="#c0392b" stroke="#c0392b"/>
<line x1="380.6" y1="267.2" x2="380.6" y2="277.7" stroke="#2a9d5c" stroke-width="1"/>
<rect x="379.4" y="275.0" width="2.4" height="2.5" fill="#2a9d5c" stroke="#2a9d5c"/>
<line x1="384.6" y1="274.6" x2="384.6" y2="293.1" stroke="#c0392b" stroke-width="1"/>
<rect x="383.4" y="275.0" width="2.4" height="4.7" fill="#c0392b" stroke="#c0392b"/>
<line x1="388.6" y1="279.2" x2="388.6" y2="301.9" stroke="#c0392b" stroke-width="1"/>
<rect x="387.4" y="280.0" width="2.4" height="17.8" fill="#c0392b" stroke="#c0392b"/>
<line x1="392.7" y1="288.9" x2="392.7" y2="299.3" stroke="#2a9d5c" stroke-width="1"/>
<rect x="391.5" y="294.2" width="2.4" height="3.7" fill="#2a9d5c" stroke="#2a9d5c"/>
<line x1="396.7" y1="292.4" x2="396.7" y2="308.4" stroke="#c0392b" stroke-width="1"/>
<rect x="395.5" y="294.2" width="2.4" height="3.0" fill="#c0392b" stroke="#c0392b"/>
<line x1="400.7" y1="283.4" x2="400.7" y2="298.5" stroke="#2a9d5c" stroke-width="1"/>
<rect x="399.5" y="285.5" width="2.4" height="11.5" fill="#2a9d5c" stroke="#2a9d5c"/>
<line x1="404.8" y1="281.8" x2="404.8" y2="290.6" stroke="#2a9d5c" stroke-width="1"/>
<rect x="403.5" y="282.1" width="2.4" height="3.5" fill="#2a9d5c" stroke="#2a9d5c"/>
<line x1="408.8" y1="278.7" x2="408.8" y2="293.3" stroke="#c0392b" stroke-width="1"/>
<rect x="407.6" y="281.9" width="2.4" height="5.4" fill="#c0392b" stroke="#c0392b"/>
<line x1="412.8" y1="279.5" x2="412.8" y2="289.2" stroke="#2a9d5c" stroke-width="1"/>
<rect x="411.6" y="282.6" width="2.4" height="4.7" fill="#2a9d5c" stroke="#2a9d5c"/>
<line x1="416.9" y1="280.4" x2="416.9" y2="294.3" stroke="#c0392b" stroke-width="1"/>
<rect x="415.6" y="282.7" width="2.4" height="11.6" fill="#c0392b" stroke="#c0392b"/>
<line x1="420.9" y1="293.4" x2="420.9" y2="306.8" stroke="#c0392b" stroke-width="1"/>
<rect x="419.7" y="294.3" width="2.4" height="7.5" fill="#c0392b" stroke="#c0392b"/>
<line x1="424.9" y1="301.5" x2="424.9" y2="318.6" stroke="#c0392b" stroke-width="1"/>
<rect x="423.7" y="301.9" width="2.4" height="8.4" fill="#c0392b" stroke="#c0392b"/>
<line x1="429.0" y1="303.8" x2="429.0" y2="310.8" stroke="#2a9d5c" stroke-width="1"/>
<rect x="427.7" y="308.5" width="2.4" height="2.1" fill="#2a9d5c" stroke="#2a9d5c"/>
<line x1="433.0" y1="290.6" x2="433.0" y2="305.9" stroke="#2a9d5c" stroke-width="1"/>
<rect x="431.8" y="291.0" width="2.4" height="14.7" fill="#2a9d5c" stroke="#2a9d5c"/>
<line x1="437.0" y1="285.6" x2="437.0" y2="292.4" stroke="#2a9d5c" stroke-width="1"/>
<rect x="435.8" y="288.2" width="2.4" height="2.8" fill="#2a9d5c" stroke="#2a9d5c"/>
<line x1="441.0" y1="281.1" x2="441.0" y2="290.7" stroke="#2a9d5c" stroke-width="1"/>
<rect x="439.8" y="281.7" width="2.4" height="6.4" fill="#2a9d5c" stroke="#2a9d5c"/>
<line x1="445.1" y1="279.2" x2="445.1" y2="289.1" stroke="#c0392b" stroke-width="1"/>
<rect x="443.9" y="281.7" width="2.4" height="7.2" fill="#c0392b" stroke="#c0392b"/>
<line x1="449.1" y1="283.6" x2="449.1" y2="291.7" stroke="#2a9d5c" stroke-width="1"/>
<rect x="447.9" y="284.2" width="2.4" height="4.8" fill="#2a9d5c" stroke="#2a9d5c"/>
<line x1="453.1" y1="283.3" x2="453.1" y2="288.5" stroke="#c0392b" stroke-width="1"/>
<rect x="451.9" y="284.2" width="2.4" height="4.0" fill="#c0392b" stroke="#c0392b"/>
<line x1="457.2" y1="285.5" x2="457.2" y2="297.2" stroke="#c0392b" stroke-width="1"/>
<rect x="456.0" y="288.2" width="2.4" height="7.4" fill="#c0392b" stroke="#c0392b"/>
<line x1="461.2" y1="293.4" x2="461.2" y2="305.4" stroke="#2a9d5c" stroke-width="1"/>
<rect x="460.0" y="294.9" width="2.4" height="0.8" fill="#2a9d5c" stroke="#2a9d5c"/>
<line x1="465.2" y1="273.6" x2="465.2" y2="302.8" stroke="#2a9d5c" stroke-width="1"/>
<rect x="464.0" y="273.6" width="2.4" height="21.3" fill="#2a9d5c" stroke="#2a9d5c"/>
<line x1="469.3" y1="271.2" x2="469.3" y2="278.0" stroke="#c0392b" stroke-width="1"/>
<rect x="468.1" y="273.6" width="2.4" height="2.4" fill="#c0392b" stroke="#c0392b"/>
<line x1="473.3" y1="274.2" x2="473.3" y2="282.9" stroke="#c0392b" stroke-width="1"/>
<rect x="472.1" y="276.1" width="2.4" height="1.7" fill="#c0392b" stroke="#c0392b"/>
<line x1="477.3" y1="275.9" x2="477.3" y2="281.5" stroke="#c0392b" stroke-width="1"/>
<rect x="476.1" y="277.8" width="2.4" height="2.1" fill="#c0392b" stroke="#c0392b"/>
<line x1="481.4" y1="275.8" x2="481.4" y2="285.7" stroke="#2a9d5c" stroke-width="1"/>
<rect x="480.2" y="277.8" width="2.4" height="2.1" fill="#2a9d5c" stroke="#2a9d5c"/>
<line x1="485.4" y1="274.4" x2="485.4" y2="279.8" stroke="#2a9d5c" stroke-width="1"/>
<rect x="484.2" y="275.3" width="2.4" height="2.5" fill="#2a9d5c" stroke="#2a9d5c"/>
<line x1="489.4" y1="268.9" x2="489.4" y2="275.9" stroke="#2a9d5c" stroke-width="1"/>
<rect x="488.2" y="269.4" width="2.4" height="5.9" fill="#2a9d5c" stroke="#2a9d5c"/>
<line x1="493.5" y1="268.9" x2="493.5" y2="276.9" stroke="#c0392b" stroke-width="1"/>
<rect x="492.3" y="269.5" width="2.4" height="3.5" fill="#c0392b" stroke="#c0392b"/>
<line x1="497.5" y1="272.3" x2="497.5" y2="277.8" stroke="#c0392b" stroke-width="1"/>
<rect x="496.3" y="273.1" width="2.4" height="3.5" fill="#c0392b" stroke="#c0392b"/>
<line x1="501.5" y1="272.8" x2="501.5" y2="279.8" stroke="#c0392b" stroke-width="1"/>
<rect x="500.3" y="276.5" width="2.4" height="0.9" fill="#c0392b" stroke="#c0392b"/>
<line x1="505.6" y1="270.9" x2="505.6" y2="277.7" stroke="#2a9d5c" stroke-width="1"/>
<rect x="504.4" y="271.8" width="2.4" height="5.7" fill="#2a9d5c" stroke="#2a9d5c"/>
<line x1="509.6" y1="269.4" x2="509.6" y2="273.5" stroke="#2a9d5c" stroke-width="1"/>
<rect x="508.4" y="270.6" width="2.4" height="1.1" fill="#2a9d5c" stroke="#2a9d5c"/>
<line x1="513.6" y1="269.6" x2="513.6" y2="275.2" stroke="#c0392b" stroke-width="1"/>
<rect x="512.4" y="270.8" width="2.4" height="3.9" fill="#c0392b" stroke="#c0392b"/>
<line x1="517.7" y1="271.1" x2="517.7" y2="274.7" stroke="#2a9d5c" stroke-width="1"/>
<rect x="516.5" y="271.7" width="2.4" height="3.0" fill="#2a9d5c" stroke="#2a9d5c"/>
<line x1="521.7" y1="271.4" x2="521.7" y2="279.0" stroke="#c0392b" stroke-width="1"/>
<rect x="520.5" y="271.7" width="2.4" height="4.6" fill="#c0392b" stroke="#c0392b"/>
<line x1="525.7" y1="273.8" x2="525.7" y2="278.7" stroke="#2a9d5c" stroke-width="1"/>
<rect x="524.5" y="275.6" width="2.4" height="0.8" fill="#2a9d5c" stroke="#2a9d5c"/>
<line x1="529.8" y1="275.1" x2="529.8" y2="281.5" stroke="#c0392b" stroke-width="1"/>
<rect x="528.5" y="275.6" width="2.4" height="2.2" fill="#c0392b" stroke="#c0392b"/>
<line x1="533.8" y1="276.2" x2="533.8" y2="281.0" stroke="#2a9d5c" stroke-width="1"/>
<rect x="532.6" y="277.5" width="2.4" height="0.8" fill="#2a9d5c" stroke="#2a9d5c"/>
<line x1="537.8" y1="271.8" x2="537.8" y2="279.8" stroke="#2a9d5c" stroke-width="1"/>
<rect x="536.6" y="271.9" width="2.4" height="5.6" fill="#2a9d5c" stroke="#2a9d5c"/>
<line x1="541.9" y1="265.9" x2="541.9" y2="271.8" stroke="#2a9d5c" stroke-width="1"/>
<rect x="540.6" y="267.3" width="2.4" height="4.5" fill="#2a9d5c" stroke="#2a9d5c"/>
<line x1="545.9" y1="265.1" x2="545.9" y2="270.7" stroke="#2a9d5c" stroke-width="1"/>
<rect x="544.7" y="267.0" width="2.4" height="0.8" fill="#2a9d5c" stroke="#2a9d5c"/>
<line x1="549.9" y1="264.6" x2="549.9" y2="269.2" stroke="#c0392b" stroke-width="1"/>
<rect x="548.7" y="267.0" width="2.4" height="0.8" fill="#c0392b" stroke="#c0392b"/>
<line x1="554.0" y1="264.2" x2="554.0" y2="269.5" stroke="#2a9d5c" stroke-width="1"/>
<rect x="552.7" y="265.8" width="2.4" height="1.9" fill="#2a9d5c" stroke="#2a9d5c"/>
<line x1="558.0" y1="261.2" x2="558.0" y2="267.9" stroke="#c0392b" stroke-width="1"/>
<rect x="556.8" y="265.7" width="2.4" height="0.8" fill="#c0392b" stroke="#c0392b"/>
<line x1="562.0" y1="260.9" x2="562.0" y2="267.5" stroke="#c0392b" stroke-width="1"/>
<rect x="560.8" y="265.6" width="2.4" height="0.8" fill="#c0392b" stroke="#c0392b"/>
<line x1="566.0" y1="263.0" x2="566.0" y2="268.1" stroke="#2a9d5c" stroke-width="1"/>
<rect x="564.8" y="264.5" width="2.4" height="1.4" fill="#2a9d5c" stroke="#2a9d5c"/>
<line x1="570.1" y1="257.5" x2="570.1" y2="264.5" stroke="#2a9d5c" stroke-width="1"/>
<rect x="568.9" y="261.7" width="2.4" height="2.8" fill="#2a9d5c" stroke="#2a9d5c"/>
<line x1="574.1" y1="259.9" x2="574.1" y2="265.7" stroke="#c0392b" stroke-width="1"/>
<rect x="572.9" y="261.8" width="2.4" height="3.9" fill="#c0392b" stroke="#c0392b"/>
<line x1="578.1" y1="264.4" x2="578.1" y2="269.3" stroke="#2a9d5c" stroke-width="1"/>
<rect x="576.9" y="265.2" width="2.4" height="0.8" fill="#2a9d5c" stroke="#2a9d5c"/>
<line x1="582.2" y1="264.7" x2="582.2" y2="271.5" stroke="#c0392b" stroke-width="1"/>
<rect x="581.0" y="265.3" width="2.4" height="4.9" fill="#c0392b" stroke="#c0392b"/>
<line x1="586.2" y1="267.6" x2="586.2" y2="272.5" stroke="#2a9d5c" stroke-width="1"/>
<rect x="585.0" y="267.6" width="2.4" height="2.6" fill="#2a9d5c" stroke="#2a9d5c"/>
<line x1="590.2" y1="265.9" x2="590.2" y2="270.2" stroke="#c0392b" stroke-width="1"/>
<rect x="589.0" y="267.6" width="2.4" height="1.6" fill="#c0392b" stroke="#c0392b"/>
<line x1="594.3" y1="266.6" x2="594.3" y2="270.0" stroke="#2a9d5c" stroke-width="1"/>
<rect x="593.1" y="267.0" width="2.4" height="2.2" fill="#2a9d5c" stroke="#2a9d5c"/>
<line x1="598.3" y1="264.2" x2="598.3" y2="267.6" stroke="#2a9d5c" stroke-width="1"/>
<rect x="597.1" y="264.3" width="2.4" height="2.8" fill="#2a9d5c" stroke="#2a9d5c"/>
<line x1="602.3" y1="261.0" x2="602.3" y2="265.6" stroke="#c0392b" stroke-width="1"/>
<rect x="601.1" y="264.3" width="2.4" height="0.8" fill="#c0392b" stroke="#c0392b"/>
<line x1="606.4" y1="258.1" x2="606.4" y2="267.3" stroke="#2a9d5c" stroke-width="1"/>
<rect x="605.2" y="258.6" width="2.4" height="5.9" fill="#2a9d5c" stroke="#2a9d5c"/>
<line x1="610.4" y1="258.8" x2="610.4" y2="262.7" stroke="#c0392b" stroke-width="1"/>
<rect x="609.2" y="258.8" width="2.4" height="1.0" fill="#c0392b" stroke="#c0392b"/>
<line x1="614.4" y1="259.0" x2="614.4" y2="264.6" stroke="#c0392b" stroke-width="1"/>
<rect x="613.2" y="259.8" width="2.4" height="4.6" fill="#c0392b" stroke="#c0392b"/>
<line x1="618.5" y1="263.8" x2="618.5" y2="267.8" stroke="#c0392b" stroke-width="1"/>
<rect x="617.3" y="264.4" width="2.4" height="2.0" fill="#c0392b" stroke="#c0392b"/>
<line x1="622.5" y1="264.9" x2="622.5" y2="267.8" stroke="#2a9d5c" stroke-width="1"/>
<rect x="621.3" y="265.4" width="2.4" height="0.9" fill="#2a9d5c" stroke="#2a9d5c"/>
<line x1="626.5" y1="263.2" x2="626.5" y2="266.9" stroke="#2a9d5c" stroke-width="1"/>
<rect x="625.3" y="263.3" width="2.4" height="2.1" fill="#2a9d5c" stroke="#2a9d5c"/>
<line x1="630.6" y1="262.9" x2="630.6" y2="266.2" stroke="#c0392b" stroke-width="1"/>
<rect x="629.4" y="263.3" width="2.4" height="1.8" fill="#c0392b" stroke="#c0392b"/>
<line x1="634.6" y1="264.3" x2="634.6" y2="267.0" stroke="#c0392b" stroke-width="1"/>
<rect x="633.4" y="265.0" width="2.4" height="0.8" fill="#c0392b" stroke="#c0392b"/>
<line x1="638.6" y1="265.6" x2="638.6" y2="276.0" stroke="#c0392b" stroke-width="1"/>
<rect x="637.4" y="265.7" width="2.4" height="4.8" fill="#c0392b" stroke="#c0392b"/>
<line x1="642.7" y1="267.4" x2="642.7" y2="271.5" stroke="#2a9d5c" stroke-width="1"/>
<rect x="641.5" y="268.3" width="2.4" height="2.3" fill="#2a9d5c" stroke="#2a9d5c"/>
<line x1="646.7" y1="268.2" x2="646.7" y2="272.5" stroke="#c0392b" stroke-width="1"/>
<rect x="645.5" y="268.3" width="2.4" height="1.1" fill="#c0392b" stroke="#c0392b"/>
<line x1="650.7" y1="263.2" x2="650.7" y2="269.8" stroke="#2a9d5c" stroke-width="1"/>
<rect x="649.5" y="263.7" width="2.4" height="5.7" fill="#2a9d5c" stroke="#2a9d5c"/>
<line x1="654.8" y1="262.7" x2="654.8" y2="268.1" stroke="#c0392b" stroke-width="1"/>
<rect x="653.5" y="263.7" width="2.4" height="2.5" fill="#c0392b" stroke="#c0392b"/>
<line x1="658.8" y1="262.1" x2="658.8" y2="269.9" stroke="#2a9d5c" stroke-width="1"/>
<rect x="657.6" y="263.2" width="2.4" height="2.9" fill="#2a9d5c" stroke="#2a9d5c"/>
<line x1="662.8" y1="261.8" x2="662.8" y2="271.0" stroke="#c0392b" stroke-width="1"/>
<rect x="661.6" y="263.2" width="2.4" height="5.2" fill="#c0392b" stroke="#c0392b"/>
<line x1="666.9" y1="265.6" x2="666.9" y2="274.6" stroke="#c0392b" stroke-width="1"/>
<rect x="665.6" y="268.5" width="2.4" height="4.1" fill="#c0392b" stroke="#c0392b"/>
<line x1="670.9" y1="267.7" x2="670.9" y2="273.6" stroke="#2a9d5c" stroke-width="1"/>
<rect x="669.7" y="270.2" width="2.4" height="2.4" fill="#2a9d5c" stroke="#2a9d5c"/>
<line x1="674.9" y1="270.2" x2="674.9" y2="282.5" stroke="#c0392b" stroke-width="1"/>
<rect x="673.7" y="270.2" width="2.4" height="9.5" fill="#c0392b" stroke="#c0392b"/>
<line x1="679.0" y1="276.5" x2="679.0" y2="287.2" stroke="#c0392b" stroke-width="1"/>
<rect x="677.7" y="279.7" width="2.4" height="0.8" fill="#c0392b" stroke="#c0392b"/>
<line x1="683.0" y1="267.7" x2="683.0" y2="280.2" stroke="#2a9d5c" stroke-width="1"/>
<rect x="681.8" y="269.3" width="2.4" height="10.8" fill="#2a9d5c" stroke="#2a9d5c"/>
<line x1="687.0" y1="269.3" x2="687.0" y2="284.8" stroke="#c0392b" stroke-width="1"/>
<rect x="685.8" y="269.3" width="2.4" height="13.5" fill="#c0392b" stroke="#c0392b"/>
<line x1="691.0" y1="274.5" x2="691.0" y2="286.8" stroke="#2a9d5c" stroke-width="1"/>
<rect x="689.8" y="281.2" width="2.4" height="1.8" fill="#2a9d5c" stroke="#2a9d5c"/>
<line x1="695.1" y1="270.5" x2="695.1" y2="282.0" stroke="#2a9d5c" stroke-width="1"/>
<rect x="693.9" y="274.9" width="2.4" height="6.3" fill="#2a9d5c" stroke="#2a9d5c"/>
<line x1="699.1" y1="265.0" x2="699.1" y2="275.1" stroke="#2a9d5c" stroke-width="1"/>
<rect x="697.9" y="268.6" width="2.4" height="6.3" fill="#2a9d5c" stroke="#2a9d5c"/>
<line x1="703.1" y1="262.8" x2="703.1" y2="269.0" stroke="#2a9d5c" stroke-width="1"/>
<rect x="701.9" y="262.9" width="2.4" height="5.7" fill="#2a9d5c" stroke="#2a9d5c"/>
<line x1="707.2" y1="258.6" x2="707.2" y2="266.8" stroke="#2a9d5c" stroke-width="1"/>
<rect x="706.0" y="260.6" width="2.4" height="2.4" fill="#2a9d5c" stroke="#2a9d5c"/>
<line x1="711.2" y1="256.1" x2="711.2" y2="261.3" stroke="#2a9d5c" stroke-width="1"/>
<rect x="710.0" y="258.7" width="2.4" height="2.0" fill="#2a9d5c" stroke="#2a9d5c"/>
<line x1="715.2" y1="258.2" x2="715.2" y2="265.6" stroke="#c0392b" stroke-width="1"/>
<rect x="714.0" y="258.6" width="2.4" height="5.6" fill="#c0392b" stroke="#c0392b"/>
<line x1="719.3" y1="262.3" x2="719.3" y2="267.1" stroke="#c0392b" stroke-width="1"/>
<rect x="718.1" y="264.3" width="2.4" height="0.8" fill="#c0392b" stroke="#c0392b"/>
<line x1="723.3" y1="262.3" x2="723.3" y2="268.7" stroke="#2a9d5c" stroke-width="1"/>
<rect x="722.1" y="262.6" width="2.4" height="2.2" fill="#2a9d5c" stroke="#2a9d5c"/>
<line x1="727.3" y1="261.1" x2="727.3" y2="269.4" stroke="#c0392b" stroke-width="1"/>
<rect x="726.1" y="262.5" width="2.4" height="2.3" fill="#c0392b" stroke="#c0392b"/>
<line x1="731.4" y1="263.5" x2="731.4" y2="269.7" stroke="#c0392b" stroke-width="1"/>
<rect x="730.2" y="264.5" width="2.4" height="3.4" fill="#c0392b" stroke="#c0392b"/>
<line x1="735.4" y1="265.6" x2="735.4" y2="270.7" stroke="#c0392b" stroke-width="1"/>
<rect x="734.2" y="267.9" width="2.4" height="0.8" fill="#c0392b" stroke="#c0392b"/>
<line x1="739.4" y1="264.9" x2="739.4" y2="270.9" stroke="#2a9d5c" stroke-width="1"/>
<rect x="738.2" y="268.0" width="2.4" height="0.8" fill="#2a9d5c" stroke="#2a9d5c"/>
<line x1="743.5" y1="264.0" x2="743.5" y2="269.5" stroke="#2a9d5c" stroke-width="1"/>
<rect x="742.3" y="266.2" width="2.4" height="1.8" fill="#2a9d5c" stroke="#2a9d5c"/>
<line x1="747.5" y1="262.3" x2="747.5" y2="265.6" stroke="#2a9d5c" stroke-width="1"/>
<rect x="746.3" y="264.3" width="2.4" height="1.3" fill="#2a9d5c" stroke="#2a9d5c"/>
<line x1="751.5" y1="260.3" x2="751.5" y2="264.7" stroke="#c0392b" stroke-width="1"/>
<rect x="750.3" y="264.3" width="2.4" height="0.8" fill="#c0392b" stroke="#c0392b"/>
<line x1="755.6" y1="263.9" x2="755.6" y2="268.3" stroke="#c0392b" stroke-width="1"/>
<rect x="754.4" y="264.5" width="2.4" height="0.8" fill="#c0392b" stroke="#c0392b"/>
<line x1="759.6" y1="262.9" x2="759.6" y2="265.8" stroke="#2a9d5c" stroke-width="1"/>
<rect x="758.4" y="264.6" width="2.4" height="0.8" fill="#2a9d5c" stroke="#2a9d5c"/>
<line x1="763.6" y1="261.6" x2="763.6" y2="264.7" stroke="#2a9d5c" stroke-width="1"/>
<rect x="762.4" y="261.7" width="2.4" height="2.8" fill="#2a9d5c" stroke="#2a9d5c"/>
<line x1="767.7" y1="257.8" x2="767.7" y2="263.0" stroke="#2a9d5c" stroke-width="1"/>
<rect x="766.5" y="258.4" width="2.4" height="3.3" fill="#2a9d5c" stroke="#2a9d5c"/>
<line x1="771.7" y1="234.1" x2="771.7" y2="259.0" stroke="#2a9d5c" stroke-width="1"/>
<rect x="770.5" y="234.8" width="2.4" height="23.6" fill="#2a9d5c" stroke="#2a9d5c"/>
<line x1="775.7" y1="229.4" x2="775.7" y2="240.2" stroke="#2a9d5c" stroke-width="1"/>
<rect x="774.5" y="234.9" width="2.4" height="0.8" fill="#2a9d5c" stroke="#2a9d5c"/>
<line x1="779.8" y1="230.8" x2="779.8" y2="239.7" stroke="#2a9d5c" stroke-width="1"/>
<rect x="778.5" y="234.5" width="2.4" height="0.8" fill="#2a9d5c" stroke="#2a9d5c"/>
<line x1="783.8" y1="212.4" x2="783.8" y2="234.6" stroke="#2a9d5c" stroke-width="1"/>
<rect x="782.6" y="215.5" width="2.4" height="19.1" fill="#2a9d5c" stroke="#2a9d5c"/>
<line x1="787.8" y1="209.3" x2="787.8" y2="218.6" stroke="#c0392b" stroke-width="1"/>
<rect x="786.6" y="215.4" width="2.4" height="0.8" fill="#c0392b" stroke="#c0392b"/>
<line x1="791.9" y1="213.5" x2="791.9" y2="219.6" stroke="#c0392b" stroke-width="1"/>
<rect x="790.6" y="215.6" width="2.4" height="1.5" fill="#c0392b" stroke="#c0392b"/>
<line x1="795.9" y1="210.1" x2="795.9" y2="218.5" stroke="#2a9d5c" stroke-width="1"/>
<rect x="794.7" y="210.7" width="2.4" height="6.4" fill="#2a9d5c" stroke="#2a9d5c"/>
<line x1="799.9" y1="207.9" x2="799.9" y2="216.6" stroke="#c0392b" stroke-width="1"/>
<rect x="798.7" y="209.2" width="2.4" height="3.8" fill="#c0392b" stroke="#c0392b"/>
<line x1="804.0" y1="211.2" x2="804.0" y2="221.1" stroke="#c0392b" stroke-width="1"/>
<rect x="802.7" y="213.3" width="2.4" height="5.4" fill="#c0392b" stroke="#c0392b"/>
<line x1="808.0" y1="217.4" x2="808.0" y2="225.3" stroke="#c0392b" stroke-width="1"/>
<rect x="806.8" y="218.7" width="2.4" height="0.8" fill="#c0392b" stroke="#c0392b"/>
<line x1="60" y1="218.4" x2="810" y2="218.4" stroke="#000000" stroke-width="1" stroke-dasharray="4,3"/>
<text x="814" y="221.4" font-size="10" fill="#000000">entry</text>
<line x1="60" y1="301.9" x2="810" y2="301.9" stroke="#c0392b" stroke-width="1" stroke-dasharray="4,3"/>
<text x="814" y="304.9" font-size="10" fill="#c0392b">SL</text>
<line x1="60" y1="51.4" x2="810" y2="51.4" stroke="#2a9d5c" stroke-width="1" stroke-dasharray="4,3"/>
<text x="814" y="54.4" font-size="10" fill="#2a9d5c">TP</text>
<line x1="808.0" y1="30" x2="808.0" y2="340" stroke="#000000" stroke-width="1.2" stroke-dasharray="2,2"/>
<text x="811.0" y="40" font-size="9" fill="#000000" transform="rotate(90 811.0 40)">entry</text>
<line x1="62.0" y1="340" x2="62.0" y2="344" stroke="#999"/>
<text x="62.0" y="356" font-size="8" text-anchor="middle" fill="#555">2026-01-26</text>
<line x1="187.0" y1="340" x2="187.0" y2="344" stroke="#999"/>
<text x="187.0" y="356" font-size="8" text-anchor="middle" fill="#555">2026-01-26</text>
<line x1="312.0" y1="340" x2="312.0" y2="344" stroke="#999"/>
<text x="312.0" y="356" font-size="8" text-anchor="middle" fill="#555">2026-01-26</text>
<line x1="437.0" y1="340" x2="437.0" y2="344" stroke="#999"/>
<text x="437.0" y="356" font-size="8" text-anchor="middle" fill="#555">2026-01-27</text>
<line x1="562.0" y1="340" x2="562.0" y2="344" stroke="#999"/>
<text x="562.0" y="356" font-size="8" text-anchor="middle" fill="#555">2026-01-27</text>
<line x1="687.0" y1="340" x2="687.0" y2="344" stroke="#999"/>
<text x="687.0" y="356" font-size="8" text-anchor="middle" fill="#555">2026-01-27</text>
<line x1="60" y1="340.0" x2="810" y2="340.0" stroke="#eee" stroke-width="0.6"/>
<text x="54" y="343.0" font-size="8" text-anchor="end" fill="#555">4951.1</text>
<line x1="60" y1="262.5" x2="810" y2="262.5" stroke="#eee" stroke-width="0.6"/>
<text x="54" y="265.5" font-size="8" text-anchor="end" fill="#555">5091.4</text>
<line x1="60" y1="185.0" x2="810" y2="185.0" stroke="#eee" stroke-width="0.6"/>
<text x="54" y="188.0" font-size="8" text-anchor="end" fill="#555">5231.8</text>
<line x1="60" y1="107.5" x2="810" y2="107.5" stroke="#eee" stroke-width="0.6"/>
<text x="54" y="110.5" font-size="8" text-anchor="end" fill="#555">5372.2</text>
<line x1="60" y1="30.0" x2="810" y2="30.0" stroke="#eee" stroke-width="0.6"/>
<text x="54" y="33.0" font-size="8" text-anchor="end" fill="#555">5512.6</text>
<rect x="60" y="30" width="750" height="310" fill="none" stroke="#ccc"/>
</g>
</svg>
