<svg xmlns="http://www.w3.org/2000/svg" width="900" height="402" viewBox="0 0 900 402" font-family="sans-serif">
<rect width="100%" height="100%" fill="white"/>
<text x="450.0" y="16" text-anchor="middle" font-size="12" font-weight="bold">BUY ticket_74 Stage A - macro (4h)</text>
<g transform="translate(0,20)">
<line x1="65.6" y1="300.5" x2="65.6" y2="307.5" stroke="#2a9d5c" stroke-width="1"/>
<rect x="62.2" y="302.2" width="6.7" height="4.5" fill="#2a9d5c" stroke="#2a9d5c"/>
<line x1="76.8" y1="300.0" x2="76.8" y2="308.0" stroke="#c0392b" stroke-width="1"/>
<rect x="73.4" y="302.2" width="6.7" height="3.5" fill="#c0392b" stroke="#c0392b"/>
<line x1="88.0" y1="301.3" x2="88.0" y2="306.9" stroke="#2a9d5c" stroke-width="1"/>
<rect x="84.6" y="304.4" width="6.7" height="1.2" fill="#2a9d5c" stroke="#2a9d5c"/>
<line x1="99.2" y1="290.7" x2="99.2" y2="306.9" stroke="#2a9d5c" stroke-width="1"/>
<rect x="95.8" y="292.0" width="6.7" height="12.4" fill="#2a9d5c" stroke="#2a9d5c"/>
<line x1="110.4" y1="292.0" x2="110.4" y2="305.9" stroke="#c0392b" stroke-width="1"/>
<rect x="107.0" y="292.0" width="6.7" height="10.2" fill="#c0392b" stroke="#c0392b"/>
<line x1="121.6" y1="300.8" x2="121.6" y2="309.1" stroke="#c0392b" stroke-width="1"/>
<rect x="118.2" y="302.2" width="6.7" height="2.2" fill="#c0392b" stroke="#c0392b"/>
<line x1="132.8" y1="293.8" x2="132.8" y2="303.9" stroke="#2a9d5c" stroke-width="1"/>
<rect x="129.4" y="294.7" width="6.7" height="9.1" fill="#2a9d5c" stroke="#2a9d5c"/>
<line x1="144.0" y1="289.2" x2="144.0" y2="296.7" stroke="#2a9d5c" stroke-width="1"/>
<rect x="140.6" y="289.9" width="6.7" height="4.8" fill="#2a9d5c" stroke="#2a9d5c"/>
<line x1="155.1" y1="289.2" x2="155.1" y2="294.3" stroke="#c0392b" stroke-width="1"/>
<rect x="151.8" y="289.9" width="6.7" height="1.2" fill="#c0392b" stroke="#c0392b"/>
<line x1="166.3" y1="288.6" x2="166.3" y2="298.6" stroke="#c0392b" stroke-width="1"/>
<rect x="163.0" y="291.1" width="6.7" height="4.4" fill="#c0392b" stroke="#c0392b"/>
<line x1="177.5" y1="289.9" x2="177.5" y2="300.7" stroke="#2a9d5c" stroke-width="1"/>
<rect x="174.2" y="290.5" width="6.7" height="5.0" fill="#2a9d5c" stroke="#2a9d5c"/>
<line x1="188.7" y1="288.3" x2="188.7" y2="295.5" stroke="#c0392b" stroke-width="1"/>
<rect x="185.4" y="290.5" width="6.7" height="2.4" fill="#c0392b" stroke="#c0392b"/>
<line x1="199.9" y1="291.2" x2="199.9" y2="305.2" stroke="#c0392b" stroke-width="1"/>
<rect x="196.6" y="291.9" width="6.7" height="7.9" fill="#c0392b" stroke="#c0392b"/>
<line x1="211.1" y1="297.1" x2="211.1" y2="305.9" stroke="#2a9d5c" stroke-width="1"/>
<rect x="207.8" y="297.6" width="6.7" height="2.1" fill="#2a9d5c" stroke="#2a9d5c"/>
<line x1="222.3" y1="294.7" x2="222.3" y2="301.2" stroke="#2a9d5c" stroke-width="1"/>
<rect x="219.0" y="294.9" width="6.7" height="2.8" fill="#2a9d5c" stroke="#2a9d5c"/>
<line x1="233.5" y1="293.9" x2="233.5" y2="305.6" stroke="#c0392b" stroke-width="1"/>
<rect x="230.1" y="294.9" width="6.7" height="2.5" fill="#c0392b" stroke="#c0392b"/>
<line x1="244.7" y1="293.5" x2="244.7" y2="300.2" stroke="#2a9d5c" stroke-width="1"/>
<rect x="241.3" y="295.5" width="6.7" height="1.9" fill="#2a9d5c" stroke="#2a9d5c"/>
<line x1="255.9" y1="294.4" x2="255.9" y2="300.3" stroke="#c0392b" stroke-width="1"/>
<rect x="252.5" y="295.5" width="6.7" height="0.8" fill="#c0392b" stroke="#c0392b"/>
<line x1="267.1" y1="294.6" x2="267.1" y2="303.0" stroke="#c0392b" stroke-width="1"/>
<rect x="263.7" y="295.8" width="6.7" height="6.2" fill="#c0392b" stroke="#c0392b"/>
<line x1="278.3" y1="295.9" x2="278.3" y2="302.6" stroke="#2a9d5c" stroke-width="1"/>
<rect x="274.9" y="301.1" width="6.7" height="0.9" fill="#2a9d5c" stroke="#2a9d5c"/>
<line x1="289.5" y1="297.1" x2="289.5" y2="301.4" stroke="#2a9d5c" stroke-width="1"/>
<rect x="286.1" y="300.5" width="6.7" height="0.8" fill="#2a9d5c" stroke="#2a9d5c"/>
<line x1="300.7" y1="296.0" x2="300.7" y2="305.6" stroke="#2a9d5c" stroke-width="1"/>
<rect x="297.3" y="298.3" width="6.7" height="2.2" fill="#2a9d5c" stroke="#2a9d5c"/>
<line x1="311.9" y1="294.8" x2="311.9" y2="318.6" stroke="#c0392b" stroke-width="1"/>
<rect x="308.5" y="298.3" width="6.7" height="7.1" fill="#c0392b" stroke="#c0392b"/>
<line x1="323.1" y1="301.0" x2="323.1" y2="306.0" stroke="#2a9d5c" stroke-width="1"/>
<rect x="319.7" y="301.5" width="6.7" height="4.0" fill="#2a9d5c" stroke="#2a9d5c"/>
<line x1="334.3" y1="274.7" x2="334.3" y2="294.8" stroke="#2a9d5c" stroke-width="1"/>
<rect x="330.9" y="282.7" width="6.7" height="9.6" fill="#2a9d5c" stroke="#2a9d5c"/>
<line x1="345.4" y1="278.0" x2="345.4" y2="284.0" stroke="#2a9d5c" stroke-width="1"/>
<rect x="342.1" y="278.3" width="6.7" height="4.4" fill="#2a9d5c" stroke="#2a9d5c"/>
<line x1="356.6" y1="278.1" x2="356.6" y2="283.1" stroke="#c0392b" stroke-width="1"/>
<rect x="353.3" y="278.3" width="6.7" height="4.0" fill="#c0392b" stroke="#c0392b"/>
<line x1="367.8" y1="279.5" x2="367.8" y2="283.5" stroke="#2a9d5c" stroke-width="1"/>
<rect x="364.5" y="281.6" width="6.7" height="0.8" fill="#2a9d5c" stroke="#2a9d5c"/>
<line x1="379.0" y1="277.7" x2="379.0" y2="282.2" stroke="#2a9d5c" stroke-width="1"/>
<rect x="375.7" y="278.7" width="6.7" height="2.8" fill="#2a9d5c" stroke="#2a9d5c"/>
<line x1="390.2" y1="278.7" x2="390.2" y2="281.1" stroke="#c0392b" stroke-width="1"/>
<rect x="386.9" y="278.7" width="6.7" height="1.8" fill="#c0392b" stroke="#c0392b"/>
<line x1="401.4" y1="278.6" x2="401.4" y2="283.6" stroke="#c0392b" stroke-width="1"/>
<rect x="398.1" y="279.9" width="6.7" height="1.0" fill="#c0392b" stroke="#c0392b"/>
<line x1="412.6" y1="267.1" x2="412.6" y2="281.7" stroke="#2a9d5c" stroke-width="1"/>
<rect x="409.3" y="268.5" width="6.7" height="12.4" fill="#2a9d5c" stroke="#2a9d5c"/>
<line x1="423.8" y1="261.4" x2="423.8" y2="268.8" stroke="#2a9d5c" stroke-width="1"/>
<rect x="420.4" y="264.5" width="6.7" height="4.0" fill="#2a9d5c" stroke="#2a9d5c"/>
<line x1="435.0" y1="257.6" x2="435.0" y2="267.8" stroke="#2a9d5c" stroke-width="1"/>
<rect x="431.6" y="260.3" width="6.7" height="4.2" fill="#2a9d5c" stroke="#2a9d5c"/>
<line x1="446.2" y1="253.2" x2="446.2" y2="265.6" stroke="#2a9d5c" stroke-width="1"/>
<rect x="442.8" y="255.1" width="6.7" height="5.3" fill="#2a9d5c" stroke="#2a9d5c"/>
<line x1="457.4" y1="253.1" x2="457.4" y2="258.5" stroke="#2a9d5c" stroke-width="1"/>
<rect x="454.0" y="253.9" width="6.7" height="1.2" fill="#2a9d5c" stroke="#2a9d5c"/>
<line x1="468.6" y1="230.9" x2="468.6" y2="255.6" stroke="#2a9d5c" stroke-width="1"/>
<rect x="465.2" y="233.1" width="6.7" height="21.0" fill="#2a9d5c" stroke="#2a9d5c"/>
<line x1="479.8" y1="218.2" x2="479.8" y2="235.8" stroke="#2a9d5c" stroke-width="1"/>
<rect x="476.4" y="229.9" width="6.7" height="3.2" fill="#2a9d5c" stroke="#2a9d5c"/>
<line x1="491.0" y1="221.5" x2="491.0" y2="234.2" stroke="#2a9d5c" stroke-width="1"/>
<rect x="487.6" y="225.8" width="6.7" height="4.2" fill="#2a9d5c" stroke="#2a9d5c"/>
<line x1="502.2" y1="220.5" x2="502.2" y2="232.3" stroke="#c0392b" stroke-width="1"/>
<rect x="498.8" y="225.8" width="6.7" height="2.9" fill="#c0392b" stroke="#c0392b"/>
<line x1="513.4" y1="223.9" x2="513.4" y2="242.8" stroke="#c0392b" stroke-width="1"/>
<rect x="510.0" y="228.7" width="6.7" height="0.8" fill="#c0392b" stroke="#c0392b"/>
<line x1="524.6" y1="228.1" x2="524.6" y2="256.1" stroke="#c0392b" stroke-width="1"/>
<rect x="521.2" y="229.2" width="6.7" height="5.4" fill="#c0392b" stroke="#c0392b"/>
<line x1="535.7" y1="233.4" x2="535.7" y2="251.4" stroke="#c0392b" stroke-width="1"/>
<rect x="532.4" y="233.4" width="6.7" height="13.3" fill="#c0392b" stroke="#c0392b"/>
<line x1="546.9" y1="235.2" x2="546.9" y2="248.0" stroke="#2a9d5c" stroke-width="1"/>
<rect x="543.6" y="235.9" width="6.7" height="10.8" fill="#2a9d5c" stroke="#2a9d5c"/>
<line x1="558.1" y1="232.6" x2="558.1" y2="239.5" stroke="#2a9d5c" stroke-width="1"/>
<rect x="554.8" y="235.3" width="6.7" height="0.8" fill="#2a9d5c" stroke="#2a9d5c"/>
<line x1="569.3" y1="229.9" x2="569.3" y2="240.5" stroke="#2a9d5c" stroke-width="1"/>
<rect x="566.0" y="233.5" width="6.7" height="1.8" fill="#2a9d5c" stroke="#2a9d5c"/>
<line x1="580.5" y1="209.5" x2="580.5" y2="235.8" stroke="#2a9d5c" stroke-width="1"/>
<rect x="577.2" y="210.5" width="6.7" height="23.1" fill="#2a9d5c" stroke="#2a9d5c"/>
<line x1="591.7" y1="203.4" x2="591.7" y2="213.3" stroke="#2a9d5c" stroke-width="1"/>
<rect x="588.4" y="204.6" width="6.7" height="5.8" fill="#2a9d5c" stroke="#2a9d5c"/>
<line x1="602.9" y1="195.8" x2="602.9" y2="206.2" stroke="#2a9d5c" stroke-width="1"/>
<rect x="599.6" y="199.2" width="6.7" height="5.3" fill="#2a9d5c" stroke="#2a9d5c"/>
<line x1="614.1" y1="195.8" x2="614.1" y2="204.1" stroke="#c0392b" stroke-width="1"/>
<rect x="610.7" y="199.2" width="6.7" height="0.8" fill="#c0392b" stroke="#c0392b"/>
<line x1="625.3" y1="198.0" x2="625.3" y2="215.1" stroke="#c0392b" stroke-width="1"/>
<rect x="621.9" y="199.7" width="6.7" height="6.8" fill="#c0392b" stroke="#c0392b"/>
<line x1="636.5" y1="198.9" x2="636.5" y2="211.6" stroke="#2a9d5c" stroke-width="1"/>
<rect x="633.1" y="202.7" width="6.7" height="3.8" fill="#2a9d5c" stroke="#2a9d5c"/>
<line x1="647.7" y1="189.9" x2="647.7" y2="204.1" stroke="#2a9d5c" stroke-width="1"/>
<rect x="644.3" y="196.0" width="6.7" height="6.7" fill="#2a9d5c" stroke="#2a9d5c"/>
<line x1="658.9" y1="189.4" x2="658.9" y2="196.0" stroke="#2a9d5c" stroke-width="1"/>
<rect x="655.5" y="189.9" width="6.7" height="6.1" fill="#2a9d5c" stroke="#2a9d5c"/>
<line x1="670.1" y1="160.0" x2="670.1" y2="186.0" stroke="#2a9d5c" stroke-width="1"/>
<rect x="666.7" y="163.4" width="6.7" height="20.3" fill="#2a9d5c" stroke="#2a9d5c"/>
<line x1="681.3" y1="154.8" x2="681.3" y2="171.6" stroke="#c0392b" stroke-width="1"/>
<rect x="677.9" y="163.4" width="6.7" height="1.0" fill="#c0392b" stroke="#c0392b"/>
<line x1="692.5" y1="158.4" x2="692.5" y2="165.4" stroke="#2a9d5c" stroke-width="1"/>
<rect x="689.1" y="160.4" width="6.7" height="4.0" fill="#2a9d5c" stroke="#2a9d5c"/>
<line x1="703.7" y1="158.9" x2="703.7" y2="170.9" stroke="#2a9d5c" stroke-width="1"/>
<rect x="700.3" y="159.1" width="6.7" height="1.3" fill="#2a9d5c" stroke="#2a9d5c"/>
<line x1="714.9" y1="156.6" x2="714.9" y2="169.9" stroke="#c0392b" stroke-width="1"/>
<rect x="711.5" y="159.0" width="6.7" height="7.8" fill="#c0392b" stroke="#c0392b"/>
<line x1="726.0" y1="166.7" x2="726.0" y2="189.4" stroke="#c0392b" stroke-width="1"/>
<rect x="722.7" y="166.9" width="6.7" height="17.3" fill="#c0392b" stroke="#c0392b"/>
<line x1="737.2" y1="163.7" x2="737.2" y2="182.8" stroke="#2a9d5c" stroke-width="1"/>
<rect x="733.9" y="165.8" width="6.7" height="16.8" fill="#2a9d5c" stroke="#2a9d5c"/>
<line x1="748.4" y1="159.7" x2="748.4" y2="170.2" stroke="#2a9d5c" stroke-width="1"/>
<rect x="745.1" y="162.0" width="6.7" height="3.8" fill="#2a9d5c" stroke="#2a9d5c"/>
<line x1="759.6" y1="157.8" x2="759.6" y2="165.6" stroke="#2a9d5c" stroke-width="1"/>
<rect x="756.3" y="161.9" width="6.7" height="0.8" fill="#2a9d5c" stroke="#2a9d5c"/>
<line x1="770.8" y1="160.0" x2="770.8" y2="173.1" stroke="#c0392b" stroke-width="1"/>
<rect x="767.5" y="161.9" width="6.7" height="9.0" fill="#c0392b" stroke="#c0392b"/>
<line x1="782.0" y1="157.1" x2="782.0" y2="172.9" stroke="#2a9d5c" stroke-width="1"/>
<rect x="778.7" y="161.4" width="6.7" height="9.6" fill="#2a9d5c" stroke="#2a9d5c"/>
<line x1="793.2" y1="132.2" x2="793.2" y2="163.4" stroke="#2a9d5c" stroke-width="1"/>
<rect x="789.9" y="134.9" width="6.7" height="26.6" fill="#2a9d5c" stroke="#2a9d5c"/>
<line x1="804.4" y1="119.6" x2="804.4" y2="141.6" stroke="#2a9d5c" stroke-width="1"/>
<rect x="801.0" y="120.4" width="6.7" height="14.6" fill="#2a9d5c" stroke="#2a9d5c"/>
<line x1="60" y1="137.6" x2="810" y2="137.6" stroke="#000000" stroke-width="1" stroke-dasharray="4,3"/>
<text x="814" y="140.6" font-size="10" fill="#000000">entry</text>
<line x1="60" y1="180.7" x2="810" y2="180.7" stroke="#c0392b" stroke-width="1" stroke-dasharray="4,3"/>
<text x="814" y="183.7" font-size="10" fill="#c0392b">SL</text>
<line x1="60" y1="51.4" x2="810" y2="51.4" stroke="#2a9d5c" stroke-width="1" stroke-dasharray="4,3"/>
<text x="814" y="54.4" font-size="10" fill="#2a9d5c">TP</text>
<line x1="804.4" y1="30" x2="804.4" y2="340" stroke="#000000" stroke-width="1.2" stroke-dasharray="2,2"/>
<text x="807.4" y="40" font-size="9" fill="#000000" transform="rotate(90 807.4 40)">entry</text>
<line x1="65.6" y1="340" x2="65.6" y2="344" stroke="#999"/>
<text x="65.6" y="356" font-size="8" text-anchor="middle" fill="#555">2026-01-13</text>
<line x1="188.7" y1="340" x2="188.7" y2="344" stroke="#999"/>
<text x="188.7" y="356" font-size="8" text-anchor="middle" fill="#555">2026-01-14</text>
<line x1="311.9" y1="340" x2="311.9" y2="344" stroke="#999"/>
<text x="311.9" y="356" font-size="8" text-anchor="middle" fill="#555">2026-01-16</text>
<line x1="435.0" y1="340" x2="435.0" y2="344" stroke="#999"/>
<text x="435.0" y="356" font-size="8" text-anchor="middle" fill="#555">2026-01-20</text>
<line x1="558.1" y1="340" x2="558.1" y2="344" stroke="#999"/>
<text x="558.1" y="356" font-size="8" text-anchor="middle" fill="#555">2026-01-22</text>
<line x1="681.3" y1="340" x2="681.3" y2="344" stroke="#999"/>
<text x="681.3" y="356" font-size="8" text-anchor="middle" fill="#555">2026-01-26</text>
<line x1="804.4" y1="340" x2="804.4" y2="344" stroke="#999"/>
<text x="804.4" y="356" font-size="8" text-anchor="middle" fill="#555">2026-01-28</text>
<line x1="60" y1="340.0" x2="810" y2="340.0" stroke="#eee" stroke-width="0.6"/>
<text x="54" y="343.0" font-size="8" text-anchor="end" fill="#555">4461.4</text>
<line x1="60" y1="262.5" x2="810" y2="262.5" stroke="#eee" stroke-width="0.6"/>
<text x="54" y="265.5" font-size="8" text-anchor="end" fill="#555">4733.3</text>
<line x1="60" y1="185.0" x2="810" y2="185.0" stroke="#eee" stroke-width="0.6"/>
<text x="54" y="188.0" font-size="8" text-anchor="end" fill="#555">5005.1</text>
<line x1="60" y1="107.5" x2="810" y2="107.5" stroke="#eee" stroke-width="0.6"/>
<text x="54" y="110.5" font-size="8" text-anchor="end" fill="#555">5277.0</text>
<line x1="60" y1="30.0" x2="810" y2="30.0" stroke="#eee" stroke-width="0.6"/>
<text x="54" y="33.0" font-size="8" text-anchor="end" fill="#555">5548.8</text>
<rect x="60" y="30" width="750" height="310" fill="none" stroke="#ccc"/>
</g>
</svg>
